<svg width="24" height="24" viewBox="0 0 24 24" fill="none" xmlns="http://www.w3.org/2000/svg">
<path fill-rule="evenodd" clip-rule="evenodd" d="M12 2C6.47679 2 2 6.47678 2 12C2 17.5232 6.47679 22 12 22C17.5232 22 22 17.5232 22 12C22 6.47678 17.5232 2 12 2ZM12 3.5C16.6948 3.5 20.5 7.30521 20.5 12C20.5 16.6948 16.6948 20.5 12 20.5C7.30522 20.5 3.5 16.6948 3.5 12C3.5 7.30521 7.30522 3.5 12 3.5ZM12.4048 7.74463C12.3551 7.37855 12.0413 7.0964 11.6616 7.0964C11.2474 7.0964 10.9116 7.43218 10.9116 7.8464V12.6934L10.92 12.8051C10.9531 13.0252 11.0829 13.2215 11.2774 13.3375L15.0474 15.5865L15.1383 15.6327C15.4781 15.7776 15.8812 15.6527 16.0757 15.3266L16.122 15.2357C16.2669 14.8959 16.1419 14.4928 15.8158 14.2983L12.4112 12.2665L12.4116 7.8464L12.4048 7.74463Z" fill="white"/>
</svg>
