<svg width="20" height="20" viewBox="0 0 20 20" fill="none" xmlns="http://www.w3.org/2000/svg">
<path d="M18.1516 4.22768C18.1512 4.22123 18.1505 4.21478 18.1494 4.20838C18.1244 4.17267 18.0937 4.14194 18.068 4.10694C17.8812 3.85257 17.6835 3.60775 17.4749 3.37243C17.4177 3.30812 17.3606 3.24453 17.302 3.18165C17.0872 2.95161 16.8618 2.73224 16.626 2.52362C16.5824 2.48503 16.5417 2.44504 16.4981 2.40716C15.917 1.90935 15.2807 1.47973 14.6017 1.12681C14.5745 1.11254 14.546 1.1004 14.5181 1.08608C14.2157 0.932438 13.9057 0.794327 13.5892 0.672376C13.5177 0.646671 13.4527 0.622347 13.3848 0.600913C13.1033 0.499475 12.8175 0.410639 12.5274 0.334403C12.4416 0.311545 12.3559 0.287976 12.2687 0.267964C11.9829 0.201525 11.6971 0.150786 11.4048 0.10934C11.3162 0.0964872 11.2291 0.0793228 11.1397 0.0686055C10.387 -0.0228685 9.62595 -0.0228685 8.87317 0.0686055C8.78387 0.0793228 8.6967 0.0964872 8.60807 0.10934C8.31583 0.150786 8.02715 0.201525 7.74417 0.267964C7.657 0.287976 7.57125 0.311545 7.48551 0.334403C7.19348 0.410597 6.90769 0.499433 6.62806 0.600913C6.55659 0.625194 6.49157 0.649517 6.4237 0.672376C6.10722 0.794327 5.79715 0.932396 5.49478 1.08608C5.4669 1.10036 5.43834 1.1125 5.41117 1.12681C4.72994 1.47936 4.0915 1.90893 3.50833 2.40716C3.46474 2.445 3.424 2.48503 3.38042 2.52362C3.14224 2.7332 2.9169 2.95257 2.70447 3.18165C2.64589 3.24453 2.5887 3.30812 2.53155 3.37243C2.32242 3.60725 2.12472 3.85207 1.9385 4.1069C1.91279 4.1419 1.88206 4.17263 1.85702 4.20834C1.85376 4.21457 1.85087 4.22102 1.84844 4.22764C-0.616146 7.68133 -0.616146 12.3187 1.84844 15.7723C1.85087 15.7789 1.85371 15.7854 1.85702 15.7916C1.88202 15.8273 1.91275 15.8581 1.9385 15.8931C2.12477 16.1474 2.32242 16.3923 2.53155 16.6276C2.5887 16.6919 2.64589 16.7555 2.70447 16.8183C2.91979 17.0484 3.14508 17.2678 3.38042 17.4764C3.424 17.515 3.46474 17.555 3.50833 17.5928C4.08945 18.0907 4.72576 18.5203 5.40472 18.8732C5.4319 18.8875 5.46045 18.8996 5.48833 18.9139C5.7907 19.0676 6.10073 19.2057 6.41725 19.3276C6.48872 19.3533 6.55374 19.3777 6.62161 19.3991C6.90313 19.5005 7.18896 19.5894 7.47906 19.6656C7.56481 19.6885 7.65055 19.712 7.73772 19.732C8.02355 19.7985 8.30934 19.8492 8.60162 19.8907C8.69021 19.9035 8.77738 19.9207 8.86672 19.9314C9.61946 20.0229 10.3805 20.0229 11.1333 19.9314C11.2226 19.9207 11.3097 19.9035 11.3984 19.8907C11.6906 19.8492 11.9793 19.7985 12.2623 19.732C12.3494 19.712 12.4352 19.6885 12.5209 19.6656C12.8134 19.5894 13.0993 19.5006 13.3784 19.3991C13.4499 19.3748 13.5149 19.3505 13.5827 19.3276C13.8992 19.2057 14.2093 19.0676 14.5117 18.9139C14.5395 18.8996 14.5681 18.8875 14.5953 18.8732C15.2742 18.5202 15.9105 18.0907 16.4917 17.5928C16.5353 17.555 16.576 17.515 16.6196 17.4764C16.8578 17.2673 17.0831 17.0479 17.2955 16.8183C17.3541 16.7555 17.4113 16.6919 17.4684 16.6276C17.6776 16.3923 17.8753 16.1474 18.0615 15.8931C18.0872 15.8581 18.1179 15.8273 18.143 15.7916C18.1462 15.7854 18.1491 15.7789 18.1516 15.7723C20.6161 12.3187 20.6161 7.68138 18.1516 4.22768ZM17.3363 5.57953C18.0196 6.70489 18.4323 7.97355 18.5417 9.28558H14.2616C14.2092 8.43423 14.0752 7.5899 13.8615 6.76417C15.0705 6.53776 16.2407 6.13879 17.3363 5.57953ZM11.8214 1.62337C11.8614 1.63266 11.9 1.64552 11.94 1.65481C12.1958 1.71484 12.4495 1.78342 12.6975 1.86916C12.7353 1.88201 12.7725 1.89704 12.8097 1.9106C13.0555 1.99634 13.2977 2.09137 13.5349 2.19641C13.5764 2.21571 13.6171 2.23715 13.6586 2.25645C13.8858 2.36458 14.1078 2.48151 14.3245 2.60727L14.4674 2.69372C14.6732 2.81948 14.8733 2.95403 15.0676 3.09742C15.1177 3.13384 15.1676 3.16888 15.217 3.20886C15.4075 3.35175 15.59 3.50489 15.7643 3.66828C15.81 3.70973 15.8572 3.75046 15.9022 3.79333C16.0851 3.96695 16.2595 4.15056 16.4281 4.34063C16.4496 4.36562 16.4724 4.38848 16.4938 4.41209C15.5263 4.87315 14.5014 5.20237 13.4463 5.39093C12.9576 4.04741 12.3119 2.76627 11.5228 1.57414C11.622 1.59197 11.7235 1.60198 11.8214 1.62337ZM7.17117 9.28554C7.22752 8.51247 7.35915 7.74673 7.56418 6.99919C8.37377 7.09536 9.18835 7.14304 10.0036 7.14208C10.8197 7.14183 11.635 7.09293 12.4452 6.99559C12.6499 7.74434 12.7808 8.5113 12.8361 9.28554H7.17117ZM12.8361 10.7145C12.7797 11.4876 12.6481 12.2534 12.4431 13.0009C11.6335 12.9047 10.8189 12.857 10.0036 12.858C9.1876 12.8571 8.37231 12.9048 7.562 13.0009C7.35756 12.2533 7.22668 11.4876 7.17112 10.7145H12.8361ZM10.0036 1.89206C10.8168 3.04446 11.4855 4.29223 11.995 5.60741C11.3336 5.67766 10.6688 5.71295 10.0036 5.71316C9.33912 5.71236 8.6751 5.67686 8.0143 5.6067C8.52441 4.2924 9.19241 3.04505 10.0036 1.89206ZM3.57988 4.33987C3.74781 4.14981 3.92286 3.96619 4.10578 3.79258C4.15079 3.74971 4.19797 3.70898 4.24369 3.66753C4.41995 3.50702 4.60241 3.35388 4.79103 3.20811C4.84035 3.17022 4.89034 3.13665 4.94037 3.09667C5.13472 2.95378 5.33481 2.81919 5.54059 2.69297L5.68348 2.60652C5.90023 2.47983 6.12221 2.36286 6.34943 2.25569C6.39088 2.23639 6.43161 2.21496 6.47306 2.19566C6.71029 2.08848 6.95253 1.99345 7.19834 1.90985C7.23548 1.89628 7.26981 1.88126 7.3105 1.8684C7.55844 1.78551 7.8107 1.71694 8.06793 1.65406C8.10796 1.64476 8.14652 1.63191 8.18725 1.62333C8.28514 1.60189 8.38663 1.59189 8.48594 1.57401C7.69648 2.76636 7.05063 4.04774 6.56166 5.39151C5.50663 5.20295 4.48163 4.87373 3.51415 4.41268C3.53558 4.38773 3.55844 4.36487 3.57988 4.33987ZM2.67097 5.57953C3.76627 6.13875 4.93627 6.53772 6.14507 6.76417C5.93159 7.58994 5.79782 8.43427 5.74565 9.28558H1.46556C1.575 7.97355 1.98765 6.70489 2.67097 5.57953ZM2.67097 14.4206C1.98761 13.2952 1.57496 12.0266 1.46556 10.7145H5.74565C5.79807 11.5659 5.93205 12.4102 6.14578 13.236C4.93677 13.4623 3.76652 13.8613 2.67097 14.4206ZM8.18583 18.3767C8.1458 18.3674 8.10724 18.3546 8.06722 18.3453C7.81141 18.2852 7.55773 18.2167 7.30979 18.1309C7.2719 18.1181 7.23476 18.103 7.19758 18.0895C6.95178 18.0037 6.70957 17.9087 6.47231 17.8037C6.43086 17.7844 6.39012 17.7629 6.34867 17.7436C6.12146 17.6355 5.89948 17.5186 5.68273 17.3928L5.53983 17.3064C5.33405 17.1806 5.13397 17.046 4.93962 16.9027C4.88958 16.8662 4.83959 16.8312 4.79027 16.7912C4.59973 16.6483 4.41727 16.4952 4.24294 16.3318C4.19722 16.2904 4.15003 16.2496 4.10503 16.2067C3.92211 16.0331 3.74777 15.8495 3.57912 15.6595C3.55769 15.6345 3.53483 15.6116 3.51339 15.588C4.48091 15.1269 5.50588 14.7977 6.5609 14.6092C7.04967 15.9527 7.69531 17.2338 8.48443 18.4259C8.38516 18.4082 8.28372 18.3981 8.18583 18.3767ZM10.0036 18.1081C9.19045 16.9557 8.52165 15.7079 8.01216 14.3927C9.33547 14.2503 10.6703 14.2503 11.9936 14.3927L11.9929 14.3934C11.4828 15.7077 10.8148 16.955 10.0036 18.1081ZM16.4274 15.6602C16.2594 15.8503 16.0844 16.0339 15.9015 16.2075C15.8565 16.2504 15.8093 16.2911 15.7636 16.3326C15.5873 16.4936 15.4048 16.6467 15.2162 16.792C15.1669 16.8298 15.1169 16.867 15.0669 16.9034C14.8725 17.0463 14.6724 17.1809 14.4667 17.3071L14.3238 17.3936C14.1075 17.5198 13.8855 17.6367 13.6578 17.7444C13.6164 17.7637 13.5756 17.7851 13.5342 17.8044C13.297 17.9116 13.0547 18.0066 12.8089 18.0902C12.7718 18.1038 12.7374 18.1188 12.6967 18.1317C12.4488 18.2146 12.1965 18.2831 11.9393 18.346C11.8993 18.3553 11.8607 18.3682 11.82 18.3768C11.7221 18.3982 11.6206 18.4082 11.5213 18.4261C12.3104 17.2339 12.9561 15.9528 13.4448 14.6093C14.4999 14.7978 15.5249 15.1271 16.4923 15.5881C16.4717 15.6124 16.4488 15.6352 16.4274 15.6602ZM17.3363 14.4206C16.241 13.8614 15.071 13.4624 13.8622 13.236C14.0757 12.4102 14.2094 11.5659 14.2616 10.7145H18.5417C18.4322 12.0265 18.0196 13.2952 17.3363 14.4206Z" fill="white"/>
</svg>
