<svg width="20" height="20" viewBox="0 0 20 20" fill="none" xmlns="http://www.w3.org/2000/svg">
<path d="M18.6328 0H1.36719C0.61332 0 0 0.613321 0 1.36719V14.072C0 14.8259 0.61332 15.4392 1.36719 15.4392H6.72891C6.80293 15.4392 6.86969 15.4802 6.90312 15.5463L8.78051 19.2508C9.28633 20.249 10.7137 20.249 11.2195 19.2508L13.097 15.5462C13.1304 15.4802 13.1971 15.4392 13.2711 15.4392H18.6328C19.3867 15.4392 20 14.8259 20 14.072V1.36719C20 0.613321 19.3867 0 18.6328 0ZM18.8281 14.072C18.8281 14.1797 18.7405 14.2674 18.6328 14.2674H13.2711C12.753 14.2674 12.2857 14.5544 12.0516 15.0165L10.1742 18.7211C10.1015 18.8646 9.89844 18.8645 9.82574 18.7211L7.9484 15.0166C7.71422 14.5544 7.24691 14.2674 6.72883 14.2674H1.36719C1.25949 14.2674 1.17188 14.1797 1.17188 14.072V1.36719C1.17188 1.25949 1.25949 1.17188 1.36719 1.17188H18.6328C18.7405 1.17188 18.8281 1.25949 18.8281 1.36719V14.072Z" fill="white"/>
<path d="M8.79276 9.27409C8.54739 9.06388 8.18175 9.09674 7.97607 9.34739C7.71006 9.67149 7.3498 9.81528 6.93593 9.81528C5.95634 9.81528 5.15941 9.00094 5.15941 8C5.15941 6.99907 5.95634 6.18472 6.93593 6.18472C7.29198 6.18472 7.63532 6.29178 7.92873 6.49437C8.19404 6.67757 8.55442 6.60621 8.73363 6.33515C8.91287 6.06408 8.84307 5.69583 8.5778 5.51271C8.09193 5.17727 7.52417 5 6.93593 5C5.31705 5 4 6.34581 4 8C4 9.65419 5.31705 11 6.93593 11C7.68989 11 8.37626 10.7036 8.86448 10.1086C9.0702 9.85796 9.03809 9.4843 8.79276 9.27409Z" fill="white"/>
<path d="M15.7929 9.27417C15.5476 9.06388 15.1819 9.09658 14.9762 9.34723C14.7091 9.67267 14.3481 9.81527 13.9359 9.81527C12.9563 9.81527 12.1594 9.00093 12.1594 8C12.1594 6.99907 12.9563 6.18472 13.9359 6.18472C14.2919 6.18472 14.6353 6.29178 14.9287 6.49437C15.194 6.67757 15.5544 6.60621 15.7336 6.33515C15.9128 6.06408 15.843 5.69583 15.5778 5.51271C15.0919 5.17727 14.5241 5 13.9359 5C12.317 5 11 6.34581 11 8C11 9.65419 12.317 11 13.9359 11C14.6899 11 15.3759 10.7036 15.8644 10.1087C16.0702 9.85812 16.0382 9.4845 15.7929 9.27417Z" fill="white"/>
</svg>
