<svg width="21" height="21" viewBox="0 0 21 21" fill="none" xmlns="http://www.w3.org/2000/svg">
<g clip-path="url(#clip0)">
<path d="M9.60156 19.2313C9.60156 19.6628 9.25183 20.0126 8.82031 20.0126H4.32812C2.60495 20.0126 1.20312 18.6107 1.20312 16.8876V3.13757C1.20312 1.4144 2.60495 0.0125732 4.32812 0.0125732H13.9332C15.6562 0.0125732 17.0582 1.4144 17.0582 3.13757V11.4188C17.0582 11.8503 16.7083 12.2001 16.277 12.2001C15.8455 12.2001 15.4957 11.8503 15.4957 11.4188V3.13757C15.4957 2.27606 14.7947 1.57507 13.9332 1.57507H4.32812C3.46661 1.57507 2.76562 2.27606 2.76562 3.13757V16.8876C2.76562 17.7491 3.46661 18.4501 4.32812 18.4501H8.82031C9.25183 18.4501 9.60156 18.7998 9.60156 19.2313ZM18.8063 12.7367C18.4555 12.4856 17.9675 12.5664 17.7163 12.9171L13.8655 18.2961C13.7603 18.418 13.6285 18.4443 13.558 18.449C13.4851 18.4537 13.3441 18.4446 13.2231 18.3294L10.7301 15.9356C10.419 15.6368 9.92444 15.6467 9.62552 15.958C9.3266 16.2693 9.33667 16.7638 9.64795 17.0626L12.1434 19.4588C12.5172 19.8145 13.016 20.0126 13.5293 20.0126C13.5734 20.0126 13.6177 20.011 13.6619 20.0081C14.221 19.9709 14.743 19.699 15.0941 19.262C15.1031 19.2509 15.112 19.2393 15.1204 19.2275L18.9868 13.8267C19.2379 13.4759 19.1572 12.9879 18.8063 12.7367ZM13.152 4.70007H5.1051C4.67358 4.70007 4.32385 5.0498 4.32385 5.48132C4.32385 5.91284 4.67358 6.26257 5.1051 6.26257H13.152C13.5833 6.26257 13.9332 5.91284 13.9332 5.48132C13.9332 5.0498 13.5833 4.70007 13.152 4.70007ZM13.9332 8.60632C13.9332 8.1748 13.5833 7.82507 13.152 7.82507H5.1051C4.67358 7.82507 4.32385 8.1748 4.32385 8.60632C4.32385 9.03784 4.67358 9.38757 5.1051 9.38757H13.152C13.5833 9.38757 13.9332 9.03784 13.9332 8.60632ZM5.1051 10.9501C4.67358 10.9501 4.32385 11.2998 4.32385 11.7313C4.32385 12.1628 4.67358 12.5126 5.1051 12.5126H9.99219C10.4237 12.5126 10.7734 12.1628 10.7734 11.7313C10.7734 11.2998 10.4237 10.9501 9.99219 10.9501H5.1051Z" fill="#168EC4"/>
</g>
<defs>
<clipPath id="clip0">
<rect width="20" height="20" fill="white" transform="translate(0.148438 0.0125732)"/>
</clipPath>
</defs>
</svg>
