<svg width="26" height="23" viewBox="0 0 26 23" fill="none" xmlns="http://www.w3.org/2000/svg">
<path d="M24.7722 3.35314C24.7706 3.35314 24.7691 3.35295 24.7676 3.35295H18.127V2.62115C18.127 1.41063 17.1412 0.425751 15.9297 0.425751H10.0703C8.85876 0.425751 7.87305 1.41063 7.87305 2.62115V3.35295H1.23242C0.824631 3.35295 0.5 3.68683 0.5 4.08475V20.1843C0.5 21.3949 1.48572 22.3797 2.69727 22.3797H23.3027C24.5143 22.3797 25.5 21.3949 25.5 20.1843V4.10018C25.5 4.09923 25.5 4.09828 25.5 4.09733C25.472 3.6167 25.1761 3.35581 24.7722 3.35314ZM9.33789 2.62115C9.33789 2.21771 9.66653 1.88935 10.0703 1.88935H15.9297C16.3335 1.88935 16.6621 2.21771 16.6621 2.62115V3.35295H9.33789V2.62115ZM23.7513 4.81655L21.4768 11.6341C21.3771 11.9335 21.0978 12.1345 20.7822 12.1345H16.6621V11.4027C16.6621 10.9985 16.3342 10.6709 15.9297 10.6709H10.0703C9.66576 10.6709 9.33789 10.9985 9.33789 11.4027V12.1345H5.21783C4.90216 12.1345 4.62292 11.9335 4.52317 11.6341L2.24866 4.81655H23.7513ZM15.1973 12.1345V13.5981H10.8027V12.1345H15.1973ZM24.0352 20.1843C24.0352 20.5878 23.7065 20.9161 23.3027 20.9161H2.69727C2.29348 20.9161 1.96484 20.5878 1.96484 20.1843V8.59427L3.13348 12.097C3.43293 12.995 4.27064 13.5981 5.21783 13.5981H9.33789V14.3299C9.33789 14.7341 9.66576 15.0617 10.0703 15.0617H15.9297C16.3342 15.0617 16.6621 14.7341 16.6621 14.3299V13.5981H20.7822C21.7294 13.5981 22.5671 12.995 22.8665 12.097L24.0352 8.59427V20.1843Z" fill="white"/>
</svg>
