<svg width="26" height="19" viewBox="0 0 26 19" fill="none" xmlns="http://www.w3.org/2000/svg">
<path d="M24.7658 0.509933H1.23418C0.828711 0.509933 0.5 0.838365 0.5 1.24349V14.7521C0.5 15.1572 0.828711 15.4857 1.23418 15.4857H10.4111V16.8284H8.43047C8.025 16.8284 7.69629 17.1569 7.69629 17.562C7.69629 17.9671 8.025 18.2955 8.43047 18.2955H17.5695C17.975 18.2955 18.3037 17.9671 18.3037 17.562C18.3037 17.1569 17.975 16.8284 17.5695 16.8284H15.5889V15.4857H24.7658C25.1713 15.4857 25.5 15.1572 25.5 14.7521V1.24349C25.5 0.838365 25.1713 0.509933 24.7658 0.509933ZM14.1205 16.8285H11.8795V15.4857H14.1205V16.8285ZM24.0316 14.0186H1.96836V1.97709H24.0316V14.0186Z" fill="white"/>
</svg>
