<svg width="26" height="26" viewBox="0 0 26 26" fill="none" xmlns="http://www.w3.org/2000/svg">
<g clip-path="url(#clip0)">
<path d="M23.3026 6.81647H12.5626L10.7653 1.41427C10.6657 1.11516 10.3857 0.91333 10.0702 0.91333H2.69725C1.48569 0.91333 0.5 1.89818 0.5 3.10871V17.7934C0.5 19.0039 1.48569 19.9888 2.69725 19.9888H10.7683L12.551 25.3766C12.6495 25.6922 12.9416 25.8921 13.2506 25.8921C13.2523 25.8921 13.2541 25.8919 13.2558 25.8919H23.3026C24.5142 25.8919 25.4999 24.907 25.4999 23.6965V9.01185C25.4998 7.80132 24.5141 6.81647 23.3026 6.81647ZM2.69725 18.5252C2.29339 18.5252 1.96483 18.1969 1.96483 17.7934V3.10871C1.96483 2.7052 2.29339 2.37692 2.69725 2.37692H9.54187L14.9142 18.5252C12.1705 18.5252 5.40631 18.5252 2.69725 18.5252ZM14.7933 19.9888L13.3578 23.1521L12.3111 19.9888H14.7933ZM24.035 23.6965C24.035 24.1 23.7064 24.4283 23.3026 24.4283H14.387L16.5966 19.5591C16.6758 19.3845 16.6796 19.1911 16.6245 19.0258L13.0495 8.28005H23.3026C23.7064 8.28005 24.035 8.60834 24.035 9.01185V23.6965Z" fill="white"/>
<path d="M10.0703 9.7437H7.87301C7.46852 9.7437 7.1406 10.0713 7.1406 10.4755C7.1406 10.8796 7.46852 11.2073 7.87301 11.2073H9.21187C8.90953 12.059 8.09542 12.6709 7.1406 12.6709C5.92903 12.6709 4.94335 11.686 4.94335 10.4755C4.94335 9.26496 5.92903 8.28011 7.1406 8.28011C7.72751 8.28011 8.27926 8.50848 8.6943 8.92311C8.98028 9.2089 9.44405 9.2089 9.73008 8.92311C10.0161 8.63733 10.0161 8.174 9.73008 7.88821C9.03838 7.19711 8.11876 6.81653 7.1406 6.81653C5.12133 6.81653 3.47852 8.45794 3.47852 10.4755C3.47852 12.493 5.12133 14.1345 7.1406 14.1345C9.15987 14.1345 10.8027 12.493 10.8027 10.4755C10.8027 10.0713 10.4748 9.7437 10.0703 9.7437Z" fill="white"/>
<path d="M21.789 12.6709H19.5918V11.9391C19.5918 11.5349 19.2638 11.2073 18.8594 11.2073C18.4549 11.2073 18.1269 11.5349 18.1269 11.9391V12.6709H15.9297C15.5252 12.6709 15.1973 12.9985 15.1973 13.4027C15.1973 13.8068 15.5252 14.1345 15.9297 14.1345H20.1845C19.9515 14.8265 19.4511 15.6466 18.8692 16.4359C18.7438 16.2668 18.62 16.0938 18.5007 15.9183C18.2732 15.5841 17.8177 15.4974 17.4832 15.7247C17.1487 15.9519 17.062 16.4071 17.2894 16.7413C17.4949 17.0433 17.7103 17.3371 17.925 17.6155C17.559 18.0397 17.1982 18.4239 16.8816 18.7347C16.5929 19.0178 16.5885 19.4811 16.8718 19.7696C17.1539 20.0569 17.6176 20.0636 17.9075 19.7794C17.9327 19.7546 18.3322 19.3615 18.8657 18.7579C19.3864 19.3531 19.7761 19.7443 19.8063 19.7745C20.0922 20.0601 20.5558 20.0603 20.8419 19.7746C21.1279 19.4889 21.128 19.0256 20.8422 18.7397C20.8345 18.7321 20.3862 18.2815 19.8139 17.6148C20.8507 16.2757 21.4828 15.1092 21.7018 14.1345H21.789C22.1935 14.1345 22.5214 13.8068 22.5214 13.4027C22.5214 12.9985 22.1935 12.6709 21.789 12.6709Z" fill="white"/>
</g>
<defs>
<clipPath id="clip0">
<rect width="25" height="24.9788" fill="white" transform="translate(0.5 0.91333)"/>
</clipPath>
</defs>
</svg>
