<svg width="26" height="26" viewBox="0 0 26 26" fill="none" xmlns="http://www.w3.org/2000/svg">
<path d="M23.1074 1.8327C21.7587 1.23984 19.99 0.913361 18.127 0.913361C14.3144 0.913361 10.8027 2.31212 10.8027 4.57236C10.8027 5.13784 10.8027 9.53464 10.8027 10.0631C10.0805 9.85293 9.32622 9.74374 8.55664 9.74374C6.40957 9.74374 4.38643 10.5915 2.85986 12.1308C1.33809 13.6653 0.5 15.6937 0.5 17.8423C0.5 22.281 4.11421 25.8921 8.55664 25.8921C10.0391 25.8921 11.4644 25.4941 12.7099 24.7487C14.0722 25.4788 16.0133 25.8921 18.127 25.8921C19.99 25.8921 21.7587 25.5656 23.1074 24.9728C24.6503 24.2946 25.5 23.3216 25.5 22.2331C25.5 21.7774 25.5 5.03759 25.5 4.57236C25.5 3.48383 24.6503 2.51088 23.1074 1.8327ZM8.55664 24.4285C4.92192 24.4285 1.96484 21.474 1.96484 17.8423C1.96484 14.1838 4.92192 11.2073 8.55664 11.2073C12.2183 11.2073 15.1973 14.1838 15.1973 17.8423C15.1973 21.474 12.2183 24.4285 8.55664 24.4285ZM24.0352 22.2331C24.0352 23.1283 21.7335 24.4285 18.127 24.4285C16.5927 24.4285 15.1433 24.1828 14.0435 23.7523C14.121 23.6811 14.1978 23.6088 14.2731 23.5343C14.9326 22.8813 15.4648 22.1373 15.8584 21.3316C16.5861 21.4438 17.3462 21.5013 18.127 21.5013C20.0529 21.5013 22.4412 21.1273 24.0352 20.0856V22.2331ZM24.0352 17.8423C24.0352 18.7375 21.7335 20.0377 18.127 20.0377C17.5294 20.0377 16.947 20.0004 16.3857 19.9281C16.5677 19.2557 16.6621 18.5559 16.6621 17.8423C16.6621 17.555 16.6464 17.2699 16.6165 16.9877C17.1098 17.0365 17.6147 17.0617 18.127 17.0617C20.053 17.0617 22.4412 16.6876 24.0352 15.646V17.8423ZM24.0352 13.4027C24.0352 14.2979 21.7335 15.5981 18.127 15.5981C17.5035 15.5981 16.8936 15.5574 16.3069 15.4782C15.9268 14.2463 15.2486 13.1123 14.309 12.1628C15.4414 12.4932 16.7567 12.6709 18.127 12.6709C20.053 12.6709 22.4412 12.2968 24.0352 11.2552V13.4027ZM24.0352 9.01194C24.0352 9.90708 21.7335 11.2073 18.127 11.2073C16.4665 11.2073 14.9167 10.9253 13.7633 10.413C12.8407 10.0034 12.2676 9.46649 12.2676 9.01194V6.82606C13.8532 7.86453 16.2213 8.23136 18.127 8.23136C20.053 8.23136 22.4412 7.85726 24.0352 6.81562V9.01194ZM18.127 6.76776C14.549 6.76776 12.2676 5.48686 12.2676 4.57236C12.2676 3.65502 14.5555 2.37696 18.127 2.37696C21.7335 2.37696 24.0352 3.67722 24.0352 4.57236C24.0352 5.4675 21.7335 6.76776 18.127 6.76776Z" fill="white"/>
</svg>
