<svg width="20" height="20" viewBox="0 0 20 20" fill="none" xmlns="http://www.w3.org/2000/svg">
<path d="M17.4434 0.889343C16.3432 0.889343 15.4294 1.7014 15.2707 2.75709L14.6025 3.42464C13.4397 4.58649 11.7272 5.28014 10.0215 5.28014H5.62695C4.67212 5.28014 3.85801 5.89197 3.55566 6.74374H3.42969C1.81426 6.74374 0.5 8.05688 0.5 9.67094C0.5 11.285 1.81426 12.5981 3.42969 12.5981H3.55566C3.77671 13.2209 4.27129 13.715 4.89453 13.9359V17.7207C4.89453 18.9313 5.88027 19.9161 7.09185 19.9161C8.30337 19.9161 9.28906 18.9313 9.28906 17.7207V14.0617H10.0215C11.7271 14.0617 13.4396 14.7554 14.6025 15.9172L15.2707 16.5848C15.4294 17.6404 16.3433 18.4525 17.4434 18.4525C18.6549 18.4525 19.6406 17.4677 19.6406 16.2571V3.08474C19.6406 1.8742 18.6549 0.889343 17.4434 0.889343ZM3.42969 11.1345C2.62197 11.1345 1.96484 10.478 1.96484 9.67094C1.96484 8.86391 2.62197 8.20734 3.42969 8.20734V11.1345ZM7.82422 17.7207C7.82422 18.1243 7.49565 18.4525 7.0918 18.4525C6.68794 18.4525 6.35938 18.1243 6.35938 17.7207V14.0617H7.82422V17.7207ZM9.28906 12.5981H5.62695C5.2231 12.5981 4.89453 12.2699 4.89453 11.8663V7.47554C4.89453 7.07203 5.2231 6.74374 5.62695 6.74374H9.28906V12.5981ZM15.2461 14.5177C14.0087 13.4477 12.4179 12.7829 10.749 12.6313L10.7491 6.71052C12.4179 6.55899 14.0087 5.89417 15.2461 4.82413V14.5177ZM18.1758 16.2571C18.1758 16.6607 17.8472 16.9889 17.4434 16.9889H17.4434C17.0395 16.9889 16.7109 16.6607 16.7109 16.2571V3.08474C16.7109 2.68123 17.0395 2.35294 17.4434 2.35294C17.8472 2.35294 18.1758 2.68123 18.1758 3.08474V16.2571Z" fill="white"/>
</svg>
