<svg width="26" height="17" viewBox="0 0 26 17" fill="none" xmlns="http://www.w3.org/2000/svg">
<path d="M23.4354 2.39254H22.9515C22.7561 2.39254 22.5672 2.42042 22.3879 2.4714C22.2053 1.51852 21.366 0.796155 20.3606 0.796155H19.8768C18.7384 0.796155 17.8122 1.72238 17.8122 2.86075V6.19318H8.18779V2.4526C8.18779 1.31417 7.26157 0.388 6.12319 0.388H5.63936C4.63403 0.388 3.79473 1.11036 3.61211 2.06324C3.43281 2.01227 3.2439 1.98439 3.04849 1.98439H2.56465C1.42622 1.98439 0.5 2.91051 0.5 4.04899V12.633C0.5 13.7714 1.42622 14.6976 2.5646 14.6976H3.04844C3.24385 14.6976 3.43276 14.6697 3.61206 14.6187C3.79473 15.5716 4.63403 16.294 5.63931 16.294H6.12314C7.26157 16.294 8.18774 15.3677 8.18774 14.2294V11.2312H17.8121V14.6376C17.8121 15.776 18.7383 16.7022 19.8768 16.7022H20.3606C21.3659 16.7022 22.2053 15.9797 22.3879 15.0269C22.5671 15.0779 22.7561 15.1058 22.9515 15.1058H23.4354C24.5737 15.1058 25.5 14.1796 25.5 13.0412V4.45714C25.5 3.31871 24.5738 2.39254 23.4354 2.39254ZM3.57476 12.633C3.57476 12.9232 3.33867 13.1593 3.04844 13.1593H2.5646C2.27437 13.1593 2.03828 12.9232 2.03828 12.633V4.04899C2.03828 3.75875 2.27437 3.52267 2.5646 3.52267H3.04844C3.33867 3.52267 3.57476 3.75875 3.57476 4.04899V12.633ZM6.64951 14.2294C6.64951 14.5196 6.41343 14.7557 6.12319 14.7557H5.63936C5.34912 14.7557 5.11304 14.5196 5.11304 14.2294V2.4525C5.11304 2.16227 5.34917 1.92618 5.63936 1.92618H6.12319C6.41343 1.92618 6.64951 2.16227 6.64951 2.4525V14.2294ZM17.8122 9.69298H8.18779V7.73141H17.8122V9.69298H17.8122ZM20.887 14.6376C20.887 14.9278 20.6509 15.1639 20.3606 15.1639H19.8768C19.5865 15.1639 19.3504 14.9278 19.3504 14.6376V2.86071C19.3504 2.57047 19.5865 2.33439 19.8768 2.33439H20.3606C20.6508 2.33439 20.887 2.57047 20.887 2.86071V14.6376ZM23.9617 13.0411C23.9617 13.3314 23.7256 13.5674 23.4354 13.5674H22.9515C22.6613 13.5674 22.4252 13.3314 22.4252 13.0411V4.45714C22.4252 4.16691 22.6613 3.93082 22.9515 3.93082H23.4354C23.7256 3.93082 23.9617 4.16691 23.9617 4.45714V13.0411Z" fill="white"/>
</svg>
