<svg width="26" height="26" viewBox="0 0 26 26" fill="none" xmlns="http://www.w3.org/2000/svg">
<g clip-path="url(#clip0)">
<path d="M1.23315 25.8917C1.2383 25.8917 21.8379 25.8915 21.8379 25.8915C22.1816 25.8915 22.4791 25.6531 22.5531 25.3177L25.4828 12.0479C25.5307 11.8312 25.4777 11.6048 25.3384 11.432C25.1994 11.2591 24.9896 11.1585 24.7675 11.1585H21.917L25.3363 4.05759C25.5116 3.69341 25.3583 3.25623 24.9938 3.08091L21.0337 1.17727C20.8586 1.09323 20.6574 1.08199 20.4741 1.14621C20.2908 1.21024 20.1405 1.3446 20.0562 1.51954L17.5292 6.76773H15.5844C15.8345 6.33684 15.9785 5.83716 15.9785 5.30413C15.9785 4.03949 14.3801 2.03161 13.5939 1.15631C13.4551 1.00176 13.2569 0.91333 13.0488 0.91333C12.8409 0.91333 12.6427 1.00176 12.5037 1.15631C11.7108 2.03923 10.1193 4.03396 10.1193 5.30413C10.1193 5.83716 10.2631 6.33684 10.5134 6.76773H9.38688V6.03593C9.38688 5.95894 9.37181 5.87261 9.34911 5.80457L7.88427 1.41377C7.7847 1.11496 7.5047 0.91333 7.18961 0.91333C6.87433 0.91333 6.59452 1.11496 6.49476 1.41377L5.02992 5.80457C5.02935 5.80629 5.02897 5.808 5.02839 5.80991C5.00665 5.87661 4.99235 5.95989 4.99235 6.03593V6.76773H1.23258C0.828031 6.76773 0.500158 7.09532 0.500158 7.49953V25.1458C0.491766 25.5512 0.818685 25.8917 1.23315 25.8917ZM21.2494 24.4283H2.1441L4.75068 12.6216H23.856L21.2494 24.4283ZM6.45719 6.76773H7.92203V11.1585H6.45719V6.76773ZM12.3164 8.13871C12.5506 8.19912 12.7961 8.23133 13.0488 8.23133C13.3017 8.23133 13.5472 8.19912 13.7812 8.13871V11.1585H12.3164V8.13871ZM21.0587 2.81353L23.6987 4.08256L23.0637 5.40151L21.7436 4.7669C21.3791 4.59177 20.9414 4.74499 20.7661 5.10917C20.5906 5.47336 20.744 5.91053 21.1085 6.08586L22.4286 6.72027L21.7934 8.03923L20.4735 7.40462C20.109 7.22949 19.6713 7.38271 19.4958 7.74689C19.3205 8.11107 19.4739 8.54844 19.8384 8.72358L21.1585 9.35818L20.2914 11.1585H17.0405L21.0587 2.81353ZM15.4149 11.1585H15.2461V8.23133H16.8244L15.4149 11.1585ZM13.0486 2.77866C13.827 3.75382 14.5136 4.85075 14.5136 5.30413C14.5136 6.1112 13.8566 6.76773 13.0488 6.76773C12.2412 6.76773 11.584 6.1112 11.584 5.30413C11.584 4.8378 12.2723 3.74848 13.0486 2.77866ZM10.8517 8.23133V11.1585H9.38688V8.23133H10.8517ZM7.63822 5.30413H6.741L7.18961 3.95926L7.63822 5.30413ZM1.965 8.23133H4.99235V11.1585H4.16227C3.81856 11.1585 3.52102 11.3973 3.44701 11.7327L1.965 18.4455V8.23133Z" fill="white"/>
<path d="M13.0488 18.5741C12.6445 18.5741 12.3164 18.9017 12.3164 19.3057V22.2329C12.3164 22.6371 12.6445 22.9647 13.0488 22.9647H18.9082C19.3128 22.9647 19.6406 22.6371 19.6406 22.2329V19.3057C19.6406 18.9017 19.3128 18.5741 18.9082 18.5741H13.0488ZM18.1758 21.5011H13.7812V20.0375H18.1758V21.5011Z" fill="white"/>
</g>
<defs>
<clipPath id="clip0">
<rect width="25" height="24.9788" fill="white" transform="translate(0.5 0.91333)"/>
</clipPath>
</defs>
</svg>
