<svg width="26" height="26" viewBox="0 0 26 26" fill="none" xmlns="http://www.w3.org/2000/svg">
<g clip-path="url(#clip0)">
<path d="M15.0901 14.3465C14.2983 14.3465 13.6003 14.6596 13.0521 15.2565C12.5038 14.6596 11.8058 14.3465 11.014 14.3465C9.40283 14.3465 8.14063 15.7149 8.14063 17.4618C8.14058 18.6029 8.73037 20.81 12.6804 22.7706C12.9141 22.8866 13.1891 22.887 13.4237 22.7706C17.3737 20.8101 17.9635 18.6029 17.9635 17.4618C17.9635 15.7149 16.7013 14.3465 15.0901 14.3465ZM13.0521 21.0844C10.9866 19.9828 9.81128 18.6749 9.81128 17.4617C9.81128 16.7608 10.2328 16.0157 11.014 16.0157C11.8879 16.0157 12.2247 17.0437 12.2495 17.1234C12.348 17.4841 12.673 17.7295 13.0474 17.7323C13.0495 17.7323 13.0516 17.7323 13.0537 17.7323C13.4263 17.7323 13.7527 17.4794 13.8553 17.1208C13.8585 17.1098 14.1818 16.0156 15.0901 16.0156C15.8713 16.0156 16.2928 16.7607 16.2928 17.4617C16.2928 18.675 15.1175 19.9828 13.0521 21.0844Z" fill="white"/>
<path d="M17.0759 10.6877H12.9998H8.92373C6.67617 10.6877 4.84766 12.5147 4.84766 14.7604V25.0777C4.84766 25.5275 5.21265 25.8922 5.66289 25.8922H20.3368C20.787 25.8922 21.1521 25.5275 21.1521 25.0777V14.7604C21.152 12.5147 19.3234 10.6877 17.0759 10.6877ZM19.5215 24.2632H6.47808V14.7604C6.47808 13.413 7.5752 12.3168 8.92373 12.3168H17.0759C18.4245 12.3168 19.5216 13.413 19.5216 14.7604V24.2632H19.5215Z" fill="white"/>
<path d="M13.0007 0.91333C10.3036 0.91333 8.10938 3.1057 8.10938 5.80048C8.10938 8.49526 10.3036 10.6876 13.0007 10.6876C15.6977 10.6876 17.892 8.49526 17.892 5.80048C17.892 3.1057 15.6977 0.91333 13.0007 0.91333ZM13.0007 9.0586C11.2026 9.0586 9.73979 7.597 9.73979 5.80048C9.73979 4.00396 11.2026 2.54236 13.0007 2.54236C14.7987 2.54236 16.2616 4.00396 16.2616 5.80048C16.2616 7.597 14.7987 9.0586 13.0007 9.0586Z" fill="white"/>
</g>
<defs>
<clipPath id="clip0">
<rect width="25" height="24.9788" fill="white" transform="translate(0.5 0.91333)"/>
</clipPath>
</defs>
</svg>
