<svg width="26" height="26" viewBox="0 0 26 26" fill="none" xmlns="http://www.w3.org/2000/svg">
<g clip-path="url(#clip0)">
<path d="M22.8145 5.84077H17.9225L17.4467 4.41474C17.1471 3.51682 16.3094 2.91357 15.3622 2.91357H10.6378C9.69063 2.91357 8.85288 3.51682 8.55332 4.41474L8.07754 5.84077H6.89648V4.62111C6.89648 3.67957 6.12983 2.91357 5.1875 2.91357H4.21094C3.2686 2.91357 2.50195 3.67957 2.50195 4.62111V5.92917C1.35117 6.23204 0.5 7.28047 0.5 8.52404V21.2086C0.5 22.6881 1.70474 23.8918 3.18555 23.8918H22.8145C24.2953 23.8918 25.5 22.6881 25.5 21.2086V8.52404C25.5 7.04449 24.2953 5.84077 22.8145 5.84077ZM3.9668 4.62111C3.9668 4.4866 4.07632 4.37717 4.21094 4.37717H5.1875C5.32212 4.37717 5.43164 4.4866 5.43164 4.62111V5.84077H3.9668V4.62111ZM24.0352 21.2086C24.0352 21.8811 23.4875 22.4282 22.8145 22.4282H3.18555C2.51245 22.4282 1.96484 21.8811 1.96484 21.2086V8.52404C1.96484 7.85151 2.51245 7.30437 3.18555 7.30437H8.60547C8.9207 7.30437 9.20059 7.10283 9.30029 6.80397L9.94297 4.87758C10.0429 4.57827 10.3221 4.37717 10.6378 4.37717H15.3622C15.6779 4.37717 15.9572 4.57827 16.057 4.87753L16.6997 6.80397C16.7994 7.10283 17.0793 7.30437 17.3945 7.30437H22.8145C23.4875 7.30437 24.0352 7.85151 24.0352 8.52404V21.2086Z" fill="white"/>
<path d="M21.7891 10.2315C22.1936 10.2315 22.5215 9.90391 22.5215 9.49974C22.5215 9.09558 22.1936 8.76794 21.7891 8.76794C21.3846 8.76794 21.0566 9.09558 21.0566 9.49974C21.0566 9.90391 21.3846 10.2315 21.7891 10.2315Z" fill="white"/>
<path d="M5.67578 8.76794H4.21094C3.80645 8.76794 3.47852 9.0956 3.47852 9.49974C3.47852 9.90389 3.80645 10.2315 4.21094 10.2315H5.67578C6.08027 10.2315 6.4082 9.90389 6.4082 9.49974C6.4082 9.0956 6.08027 8.76794 5.67578 8.76794Z" fill="white"/>
<path d="M13 20.9646C9.36528 20.9646 6.4082 18.0101 6.4082 14.3784C6.4082 10.7468 9.36528 7.79224 13 7.79224C16.6347 7.79224 19.5918 10.7468 19.5918 14.3784C19.5918 18.0101 16.6347 20.9646 13 20.9646ZM13 9.25584C10.173 9.25584 7.87305 11.5538 7.87305 14.3784C7.87305 17.203 10.173 19.501 13 19.501C15.827 19.501 18.127 17.203 18.127 14.3784C18.127 11.5538 15.827 9.25584 13 9.25584Z" fill="white"/>
<path d="M13 18.0374C10.9807 18.0374 9.33789 16.396 9.33789 14.3784C9.33789 12.3608 10.9807 10.7194 13 10.7194C15.0193 10.7194 16.6621 12.3608 16.6621 14.3784C16.6621 16.396 15.0193 18.0374 13 18.0374ZM13 12.183C11.7884 12.183 10.8027 13.1679 10.8027 14.3784C10.8027 15.589 11.7884 16.5738 13 16.5738C14.2116 16.5738 15.1973 15.589 15.1973 14.3784C15.1973 13.1679 14.2116 12.183 13 12.183Z" fill="white"/>
</g>
<defs>
<clipPath id="clip0">
<rect width="25" height="24.9788" fill="white" transform="translate(0.5 0.91333)"/>
</clipPath>
</defs>
</svg>
