<svg width="26" height="26" viewBox="0 0 26 26" fill="none" xmlns="http://www.w3.org/2000/svg">
<g clip-path="url(#clip0)">
<path d="M25.2093 7.01347C25.0263 6.8752 24.789 6.83056 24.5681 6.89301L14.2165 9.8202C13.9013 9.90938 13.6836 10.1969 13.6836 10.5243V20.4315C13.2523 20.1816 12.7522 20.0377 12.2187 20.0377C10.6033 20.0377 9.28906 21.3508 9.28906 22.9649C9.28906 24.5789 10.6033 25.8921 12.2187 25.8921C13.8342 25.8921 15.1484 24.5789 15.1484 22.9649C15.1484 22.8889 15.1484 14.005 15.1484 14.005L24.0351 11.492V17.5043C23.6038 17.2544 23.1037 17.1105 22.5703 17.1105C20.9548 17.1105 19.6406 18.4236 19.6406 20.0377C19.6406 21.6517 20.9548 22.9649 22.5703 22.9649C24.1857 22.9649 25.4999 21.6517 25.4999 20.0377C25.4999 19.9728 25.4999 7.59715 25.4999 7.59715C25.5 7.36785 25.3924 7.15177 25.2093 7.01347ZM12.2188 24.4285C11.4111 24.4285 10.7539 23.7719 10.7539 22.9649C10.7539 22.1579 11.4111 21.5013 12.2188 21.5013C13.0265 21.5013 13.6836 22.1579 13.6836 22.9649C13.6836 23.7719 13.0265 24.4285 12.2188 24.4285ZM22.5703 21.5013C21.7626 21.5013 21.1055 20.8447 21.1055 20.0377C21.1055 19.2307 21.7626 18.5741 22.5703 18.5741C23.378 18.5741 24.0351 19.2307 24.0351 20.0377C24.0351 20.8447 23.378 21.5013 22.5703 21.5013ZM24.0351 9.97095L15.1485 12.4839V11.0778L24.0351 8.56483V9.97095Z" fill="white"/>
<path d="M10.7199 6.10808C9.09489 4.91788 7.90441 3.73911 7.08049 2.50427L6.23631 1.23919C6.05725 0.970866 5.72352 0.85129 5.41468 0.944716C5.10579 1.03819 4.89451 1.32267 4.89451 1.64514V13.1135C4.46322 12.8635 3.96312 12.7197 3.42968 12.7197C1.81425 12.7197 0.5 14.0328 0.5 15.6469C0.5 17.2609 1.81425 18.574 3.42968 18.574C5.0451 18.574 6.35935 17.2609 6.35935 15.6469V4.00607C7.23469 5.13298 8.38517 6.21287 9.85382 7.28856C10.4174 7.7013 10.7539 8.36377 10.7539 9.06073C10.7539 10.2713 9.76818 11.2561 8.55661 11.2561C8.15212 11.2561 7.82419 11.5838 7.82419 11.9879C7.82419 12.3921 8.15212 12.7197 8.55661 12.7197C10.5759 12.7197 12.2187 11.0782 12.2187 9.06068C12.2187 7.89922 11.6584 6.79543 10.7199 6.10808ZM3.42968 17.1104C2.62196 17.1104 1.96484 16.4539 1.96484 15.6469C1.96484 14.8398 2.62196 14.1833 3.42968 14.1833C4.23739 14.1833 4.89451 14.8398 4.89451 15.6469C4.89451 16.4539 4.23739 17.1104 3.42968 17.1104Z" fill="white"/>
</g>
<defs>
<clipPath id="clip0">
<rect width="25" height="24.9788" fill="white" transform="translate(0.5 0.91333)"/>
</clipPath>
</defs>
</svg>
