<svg width="26" height="26" viewBox="0 0 26 26" fill="none" xmlns="http://www.w3.org/2000/svg">
<g clip-path="url(#clip0)">
<path d="M24.0352 18.7127V8.60279L25.0238 8.23392C25.3102 8.12702 25.5 7.85372 25.5 7.54832C25.5 7.24291 25.3102 6.96961 25.0238 6.86277L13.2562 2.47197C13.091 2.4103 12.909 2.4103 12.7438 2.47197L0.976221 6.86277C0.689844 6.96961 0.5 7.24291 0.5 7.54832C0.5 7.85372 0.689844 8.12702 0.976172 8.23387L5.85254 10.0534C4.6981 13.308 4.98936 15.02 4.94336 15.5981C4.94336 15.8409 5.06392 16.068 5.26514 16.2041C5.46641 16.3403 5.72207 16.3677 5.94775 16.2776C5.9648 16.2708 7.66724 15.5981 9.33789 15.5981C10.8833 15.5981 12.527 16.8891 12.5424 16.9014C12.81 17.1151 13.19 17.1151 13.4575 16.9014C13.911 16.5389 15.3708 15.5981 16.6621 15.5981C18.3235 15.5981 20.0357 16.271 20.0522 16.2776C20.2778 16.3677 20.5336 16.3402 20.7348 16.2041C20.9361 16.068 21.0566 15.8409 21.0566 15.5981C21.0141 15.0639 21.2958 13.2909 20.1474 10.0534L22.5703 9.14935V18.7127C22.1938 18.916 21.8653 19.2807 21.6118 19.7872C21.2853 20.4397 21.1055 21.291 21.1055 22.1843V23.6479C21.1055 24.0521 21.4334 24.3797 21.8379 24.3797H24.7676C25.1721 24.3797 25.5 24.0521 25.5 23.6479V22.1843C25.5 21.291 25.3202 20.4397 24.9937 19.7872C24.7402 19.2807 24.4117 18.916 24.0352 18.7127ZM13 3.93869L22.674 7.54832C21.676 7.92071 13.9658 10.7976 13 11.1579C12.0342 10.7976 4.32397 7.92071 3.32598 7.54832L13 3.93869ZM19.5858 14.5845C18.8347 14.3711 17.7555 14.1345 16.6621 14.1345C15.1639 14.1345 13.7142 14.955 13 15.4303C12.2858 14.955 10.836 14.1345 9.33789 14.1345C8.24453 14.1345 7.16533 14.3711 6.41421 14.5845C6.45635 13.0967 6.7208 11.9886 7.2249 10.5654L12.7438 12.6247C12.909 12.6863 13.091 12.6863 13.2562 12.6247L18.7751 10.5654C19.2792 11.9886 19.5436 13.0967 19.5858 14.5845ZM24.0352 22.9161H22.5703V22.1843C22.5703 21.5235 22.6985 20.8884 22.922 20.4417C23.1092 20.0677 23.2773 19.9889 23.3027 19.9889C23.3281 19.9889 23.4962 20.0677 23.6834 20.4417C23.9069 20.8884 24.0352 21.5235 24.0352 22.1843V22.9161Z" fill="white"/>
</g>
<defs>
<clipPath id="clip0">
<rect width="25" height="24.9788" fill="white" transform="translate(0.5 0.91333)"/>
</clipPath>
</defs>
</svg>
