<svg width="21" height="21" viewBox="0 0 21 21" fill="none" xmlns="http://www.w3.org/2000/svg">
<path fill-rule="evenodd" clip-rule="evenodd" d="M2.99064 4.56045C3.25424 4.12398 4.70662 2.53647 5.74305 2.58439C6.05287 2.61007 6.32673 2.79749 6.54926 3.01487C7.06019 3.5138 8.52284 5.40084 8.60586 5.79794C8.80783 6.77184 7.64731 7.33325 8.00248 8.31486C8.90795 10.5305 10.4682 12.0907 12.6848 12.9953C13.6656 13.3504 14.227 12.1899 15.201 12.3928C15.5973 12.4758 17.4853 13.9383 17.9842 14.4492C18.2008 14.6709 18.389 14.9456 18.4147 15.2554C18.4532 16.3466 16.7672 17.8194 16.4385 18.0077C15.6632 18.5622 14.6515 18.5528 13.4183 17.9794C9.97695 16.5477 4.47725 11.1518 3.01888 7.58057C2.46087 6.35421 2.42236 5.33581 2.99064 4.56045Z" stroke="white" stroke-width="1.5" stroke-linecap="round" stroke-linejoin="round"/>
</svg>
