<svg width="20" height="16" viewBox="0 0 20 16" fill="none" xmlns="http://www.w3.org/2000/svg">
<path d="M9.58635 4.86203L9.58627 4.86202C9.20369 4.81332 8.85863 5.0912 8.81151 5.47762C8.76445 5.86353 9.03148 6.21944 9.41363 6.2684L13.8146 6.83235L9.50001 8.74894L2.33285 5.5652L9.50001 2.38149L16.6672 5.56523L16.3105 5.72366L9.58635 4.86203ZM4.84965 11.3479V8.22885L9.2233 10.1717C9.39948 10.2499 9.59988 10.2502 9.7767 10.1717L9.77671 10.1717L14.1504 8.22885V11.3479C14.1504 11.8671 13.7305 12.4313 12.941 12.8809C12.0065 13.4131 10.7576 13.6831 9.50206 13.6835C8.24656 13.6838 6.99628 13.4147 6.05899 12.8809L6.0095 12.9678L6.05898 12.8809C5.26951 12.4313 4.84965 11.8671 4.84965 11.3479ZM18.6836 4.91533L9.77671 0.9588C9.60023 0.8804 9.39979 0.8804 9.2233 0.958801L0.31639 4.91533C-0.238714 5.16191 -0.238883 5.96851 0.316399 6.21511L3.46206 7.61242V11.3478C3.46206 12.4185 4.14404 13.3591 5.23001 14.0271C6.31688 14.6956 7.8203 15.1 9.50001 15.1C11.1797 15.1 12.6831 14.6956 13.77 14.0271C14.856 13.3591 15.5379 12.4185 15.5379 11.3478V7.61242L15.9317 7.4375V13.7826C15.9317 14.1716 16.2401 14.4913 16.6255 14.4913C17.011 14.4913 17.3193 14.1716 17.3193 13.7826V6.82115L18.6836 6.21514C19.2387 5.96856 19.2388 5.16196 18.6836 4.91533Z" fill="#168EC4" stroke="#168EC4" stroke-width="0.2"/>
</svg>
