<svg width="24" height="16" viewBox="0 0 24 16" fill="none" xmlns="http://www.w3.org/2000/svg">
<path d="M1 13H23L22.9364 13.6112C22.7397 15.1194 21.6204 16 20.4829 16H3.51709C2.23153 16 1.22523 14.9397 1.06496 13.6224C1.06319 13.6087 1.07202 13.6922 1 13Z" fill="#F47920"/>
<path d="M23.9849 3.14363L23.1632 11H0.818142L0.0157351 3.31041C-0.199046 1.5072 1.83988 0.673764 2.78118 1.7056C5.04585 4.19657 5.28829 4.6883 6.04907 4.60177C6.33501 4.56859 6.53934 4.44639 6.70902 4.29727C11.3198 0.0775384 11.0182 0.35079 11.0657 0.314973C11.6863 -0.140401 12.4843 -0.0652805 12.9518 0.30603C17.6107 4.04033 17.3948 3.87587 17.4989 3.93239C17.9339 4.17086 18.4469 4.1405 18.8853 3.73028C21.4744 1.30353 21.3102 1.45475 21.3583 1.41808C22.5426 0.538457 24.1744 1.56064 23.9849 3.14363Z" fill="#F47920"/>
</svg>
