<svg width="10" height="22" viewBox="0 0 10 22" fill="none" xmlns="http://www.w3.org/2000/svg">
<path d="M3.29584 1.13312C4.13284 0.316429 5.31775 0.038842 6.44071 0.0066969C7.62594 -0.00401814 8.81118 0.00133938 9.99609 0.00133938C10.0013 1.28781 10.0013 2.56893 9.99609 3.85541C9.23212 3.85541 8.46262 3.85541 7.69865 3.85541C7.2151 3.82326 6.71623 4.20231 6.62787 4.69888C6.61743 5.55843 6.62265 6.41764 6.62265 7.27719C7.74528 7.28255 8.86824 7.27719 9.99087 7.28255C9.90773 8.52616 9.75708 9.76476 9.58036 10.9926C8.5875 11.0033 7.59464 10.9926 6.60178 10.998C6.59135 14.6652 6.607 18.3271 6.59656 21.9946C5.12015 22 3.64929 21.9893 2.17288 22C2.14679 18.3328 2.17288 14.6656 2.15723 10.998C1.43989 10.9926 0.717337 11.0033 0 10.9926C0.00521699 9.7594 0 8.5265 0 7.29862C0.717337 7.28791 1.43989 7.29862 2.15723 7.29326C2.1781 6.09753 2.13636 4.89644 2.1781 3.70071C2.25635 2.7454 2.60458 1.78975 3.29584 1.13312Z" fill="white"/>
</svg>
