<svg width="21" height="21" viewBox="0 0 21 21" fill="none" xmlns="http://www.w3.org/2000/svg">
<g clip-path="url(#clip0)">
<path d="M19.9787 8.54236L19.0258 3.27168C18.8914 2.52793 18.3014 1.93793 17.5577 1.80352L12.2869 0.850634C11.6998 0.744658 11.0972 0.933056 10.6753 1.35501L0.540276 11.4899C-0.169682 12.2 -0.169682 13.3553 0.540315 14.0654L6.76385 20.289C7.11892 20.644 7.58525 20.8215 8.05165 20.8215C8.51802 20.8215 8.98438 20.644 9.33942 20.289L19.4743 10.1542C19.8964 9.73216 20.0849 9.12962 19.9787 8.54236ZM18.6449 9.32474L8.51005 19.4596C8.25724 19.7124 7.84603 19.7124 7.5933 19.4596L1.36977 13.236C1.11699 12.9832 1.11699 12.572 1.36973 12.3193L11.5046 2.18438C11.6273 2.06176 11.7927 1.99454 11.9631 1.99454C12.0014 1.99454 12.04 1.99793 12.0784 2.00485L17.3491 2.95777C17.6138 3.00559 17.8238 3.21562 17.8716 3.48035L18.8245 8.75099C18.8623 8.96002 18.7952 9.17451 18.6449 9.32474Z" fill="#F47920"/>
<path d="M16.3338 4.47844C15.7079 3.85238 14.6893 3.85242 14.0633 4.47844C13.4372 5.10445 13.4372 6.123 14.0633 6.74902C14.3763 7.06203 14.7874 7.21855 15.1986 7.21855C15.6097 7.21855 16.0208 7.06203 16.3338 6.74906C16.6371 6.44578 16.8041 6.04261 16.8041 5.61375C16.8041 5.18488 16.6371 4.78168 16.3338 4.47844ZM15.5045 5.91957V5.91961C15.3358 6.08828 15.0614 6.08836 14.8927 5.91961C14.724 5.75093 14.724 5.47648 14.8927 5.30781C14.977 5.22347 15.0878 5.18133 15.1986 5.18133C15.3094 5.18133 15.4201 5.22355 15.5045 5.30785C15.5862 5.38957 15.6312 5.49816 15.6312 5.61371C15.6312 5.72926 15.5862 5.83785 15.5045 5.91957Z" fill="#F47920"/>
<path d="M7.46804 15.7259L6.56187 14.8197L7.09222 14.2894C7.14604 14.2356 7.16593 14.1735 7.15187 14.1033C7.13784 14.033 7.10394 13.971 7.05003 13.9171C6.99155 13.8586 6.92648 13.8229 6.85511 13.81C6.78366 13.7971 6.72218 13.8164 6.67073 13.8679L6.14038 14.3982L5.54675 13.8046L6.45648 12.8949C6.50796 12.8434 6.52499 12.7796 6.50741 12.7035C6.48988 12.6274 6.44714 12.5554 6.37921 12.4875C6.31601 12.4242 6.24695 12.3833 6.17195 12.3645C6.09706 12.3459 6.03269 12.3634 5.97886 12.4172L4.76008 13.636C4.69449 13.7016 4.65293 13.7724 4.63539 13.8485C4.61781 13.9247 4.63598 13.9896 4.68981 14.0434L6.92015 16.2738C6.97409 16.3277 7.04253 16.3423 7.12565 16.3178C7.20874 16.2932 7.28772 16.2435 7.36268 16.1685C7.43761 16.0935 7.48737 16.0146 7.51194 15.9314C7.53655 15.8483 7.52198 15.7798 7.46804 15.7259Z" fill="#F47920"/>
<path d="M10.4141 12.5892C10.3884 12.5634 10.3615 12.5482 10.3333 12.5435L9.12861 12.1957C9.30185 11.8025 9.20591 11.423 8.8406 11.0578C8.33955 10.5567 7.80093 10.5942 7.22492 11.1702L6.49781 11.8973C6.44863 11.9464 6.42465 12.0032 6.42582 12.0676C6.42699 12.1321 6.44985 12.1865 6.4943 12.2309L8.72814 14.4648C8.78209 14.5187 8.85049 14.5334 8.93361 14.5087C9.01673 14.4842 9.09572 14.4344 9.17064 14.3595C9.24556 14.2846 9.29533 14.2056 9.31997 14.1224C9.34454 14.0393 9.32993 13.9709 9.27599 13.9169L8.42955 13.0705L8.66139 12.8387L10.0769 13.2917C10.1799 13.3246 10.2724 13.3 10.3543 13.218C10.4363 13.136 10.4838 13.0277 10.4966 12.893C10.5096 12.7584 10.482 12.6571 10.4141 12.5892ZM8.35592 12.3011L8.00815 12.6489L7.35488 11.9956L7.70265 11.6478C7.80565 11.5448 7.90928 11.4916 8.0135 11.4881C8.11768 11.4846 8.2283 11.5413 8.34537 11.6584C8.46252 11.7755 8.51924 11.8861 8.51572 11.9903C8.51217 12.0945 8.45893 12.1981 8.35592 12.3011Z" fill="#F47920"/>
<path d="M12.49 10.8998C12.4712 10.8248 12.4303 10.7558 12.367 10.6925C12.2991 10.6246 12.2271 10.582 12.151 10.5643C12.0749 10.5469 12.0111 10.5638 11.9596 10.6153L11.0183 11.5566L10.4212 10.9595L10.9481 10.4327C11.0019 10.3788 11.0218 10.3167 11.0078 10.2465C10.9937 10.1762 10.9598 10.1142 10.9059 10.0603C10.8475 10.0018 10.7824 9.96609 10.711 9.9532C10.6395 9.94035 10.578 9.95968 10.5266 10.0111L9.99973 10.538L9.40609 9.94437L10.3474 9.00304C10.3989 8.95156 10.4159 8.88777 10.3984 8.81164C10.3809 8.73558 10.3381 8.66355 10.2702 8.59562C10.207 8.53234 10.1379 8.49144 10.0629 8.47265C9.98805 8.45402 9.92363 8.47156 9.86981 8.52539L8.61941 9.77578C8.55391 9.84136 8.51231 9.91218 8.49477 9.98828C8.47719 10.0644 8.49535 10.1293 8.54918 10.1832L10.7795 12.4136C10.8335 12.4675 10.8984 12.4857 10.9744 12.468C11.0505 12.4505 11.1213 12.4089 11.1869 12.3433L12.4373 11.0929C12.4911 11.0391 12.5087 10.9748 12.49 10.8998Z" fill="#F47920"/>
<path d="M14.3806 9.00677C14.3619 8.93185 14.3209 8.86279 14.2576 8.79955C14.1898 8.73166 14.1178 8.68896 14.0416 8.67134C13.9655 8.65388 13.9017 8.6708 13.8502 8.72228L12.9089 9.66357L12.3119 9.0665L12.8387 8.53966C12.8925 8.48584 12.9125 8.42373 12.8984 8.35349C12.8844 8.28322 12.8505 8.22123 12.7966 8.16732C12.7381 8.10884 12.673 8.0731 12.6016 8.06025C12.5301 8.0474 12.4687 8.0667 12.4172 8.11818L11.8904 8.64502L11.2968 8.05138L12.238 7.1101C12.2896 7.05857 12.3066 6.99482 12.289 6.91869C12.2715 6.84264 12.2287 6.7706 12.1608 6.70267C12.0976 6.63939 12.0285 6.5985 11.9535 6.57971C11.8787 6.56107 11.8143 6.57861 11.7604 6.63244L10.51 7.88283C10.4445 7.94838 10.4029 8.01923 10.3854 8.09533C10.3678 8.1715 10.386 8.23638 10.4398 8.29025L12.6701 10.5206C12.7241 10.5745 12.789 10.5927 12.865 10.5751C12.9412 10.5576 13.0119 10.5159 13.0775 10.4504L14.3279 9.19997C14.3817 9.14615 14.3993 9.08177 14.3806 9.00677Z" fill="#F47920"/>
</g>
<defs>
<clipPath id="clip0">
<rect width="20" height="20" fill="white" transform="translate(0.0078125 0.821533)"/>
</clipPath>
</defs>
</svg>
