<svg width="21" height="21" viewBox="0 0 21 21" fill="none" xmlns="http://www.w3.org/2000/svg">
<g clip-path="url(#clip0)">
<path d="M10.039 0.220215C4.51621 0.220215 0.0390625 4.69736 0.0390625 10.2202C0.0390625 15.743 4.51621 20.2202 10.039 20.2202C15.5619 20.2202 20.039 15.743 20.039 10.2202C20.0332 4.69983 15.5594 0.226116 10.039 0.220215ZM10.039 18.7916C5.30517 18.7916 1.46762 14.9541 1.46762 10.2202C1.46762 5.48632 5.30517 1.64877 10.039 1.64877C14.7729 1.64877 18.6105 5.48632 18.6105 10.2202C18.6054 14.952 14.7708 18.7865 10.039 18.7916Z" fill="#F47920"/>
<path d="M13.9654 9.40808C13.8976 9.272 13.7873 9.16168 13.6512 9.09385L8.05186 6.29418C7.70606 6.12141 7.2857 6.26162 7.11288 6.60742C7.06428 6.70466 7.03902 6.8119 7.03906 6.92062V12.52C7.0389 12.9065 7.3521 13.22 7.73867 13.2202C7.84738 13.2203 7.95463 13.195 8.05186 13.1464L13.6512 10.3467C13.9972 10.1743 14.1379 9.75404 13.9654 9.40808ZM8.43892 11.3875V8.05309L11.7733 9.72029L8.43892 11.3875Z" fill="#F47920"/>
</g>
<defs>
<clipPath id="clip0">
<rect width="20" height="20" fill="white" transform="translate(0.0390625 0.220215)"/>
</clipPath>
</defs>
</svg>
