<svg width="21" height="21" viewBox="0 0 21 21" fill="none" xmlns="http://www.w3.org/2000/svg">
<g clip-path="url(#clip0)">
<path d="M18.6887 6.86719C17.7696 5.80513 16.4735 5.22021 15.0391 5.22021C13.2702 5.22021 11.9388 6.25983 11.0057 7.41316C11.3603 7.96866 11.6365 8.50041 11.8379 8.93188C12.5546 7.87859 13.6278 6.81442 15.0391 6.81442C17.0309 6.81442 18.4766 8.45704 18.4766 10.7202C18.4766 12.9834 17.0309 14.626 15.0391 14.626C12.1916 14.626 10.7933 10.5076 10.7799 10.4672L10.7761 10.4557C10.7024 10.242 8.92664 5.22021 5.03906 5.22021C3.60461 5.22021 2.30852 5.80513 1.38941 6.86719C0.518633 7.87345 0.0390625 9.24183 0.0390625 10.7202C0.0390625 12.1986 0.518633 13.567 1.38941 14.5732C2.30852 15.6353 3.60461 16.2202 5.03906 16.2202C6.82242 16.2202 8.14711 15.2067 9.07203 14.07C8.71836 13.5146 8.44449 12.9822 8.24348 12.5438C7.53629 13.5846 6.47098 14.626 5.03906 14.626C3.04723 14.626 1.60156 12.9834 1.60156 10.7202C1.60156 8.45704 3.04723 6.81442 5.03906 6.81442C7.78723 6.81442 9.25422 10.8503 9.30102 10.9817C9.40481 11.2938 11.1076 16.2202 15.0391 16.2202C16.4735 16.2202 17.7696 15.6353 18.6887 14.5732C19.5595 13.567 20.0391 12.1986 20.0391 10.7202C20.0391 9.24183 19.5595 7.87345 18.6887 6.86719Z" fill="#F47920"/>
</g>
<defs>
<clipPath id="clip0">
<rect width="20" height="20" fill="white" transform="translate(0.0390625 0.220215)"/>
</clipPath>
</defs>
</svg>
