<svg width="21" height="21" viewBox="0 0 21 21" fill="none" xmlns="http://www.w3.org/2000/svg">
<g clip-path="url(#clip0)">
<path d="M9.47041 19.439C9.47041 19.8705 9.11931 20.2202 8.6861 20.2202H4.17631C2.44638 20.2202 1.03906 18.8184 1.03906 17.0952V3.34521C1.03906 1.62204 2.44638 0.220215 4.17631 0.220215H13.819C15.5488 0.220215 16.9563 1.62204 16.9563 3.34521V11.6265C16.9563 12.058 16.605 12.4077 16.172 12.4077C15.7388 12.4077 15.3877 12.058 15.3877 11.6265V3.34521C15.3877 2.4837 14.6839 1.78271 13.819 1.78271H4.17631C3.31142 1.78271 2.60768 2.4837 2.60768 3.34521V17.0952C2.60768 17.9567 3.31142 18.6577 4.17631 18.6577H8.6861C9.11931 18.6577 9.47041 19.0074 9.47041 19.439ZM18.7112 12.9444C18.359 12.6932 17.8691 12.7741 17.617 13.1247L13.751 18.5038C13.6455 18.6257 13.5131 18.6519 13.4424 18.6566C13.3691 18.6614 13.2276 18.6522 13.1061 18.537L10.6034 16.1432C10.291 15.8445 9.79455 15.8544 9.49446 16.1656C9.19437 16.4769 9.20448 16.9715 9.51698 17.2702L12.0222 19.6665C12.3975 20.0222 12.8982 20.2202 13.4136 20.2202C13.4578 20.2202 13.5023 20.2187 13.5467 20.2158C14.108 20.1786 14.632 19.9066 14.9845 19.4696C14.9935 19.4585 15.0024 19.4469 15.0108 19.4352L18.8924 14.0343C19.1446 13.6835 19.0635 13.1955 18.7112 12.9444ZM13.0347 4.90771H4.95633C4.52312 4.90771 4.17202 5.25745 4.17202 5.68896C4.17202 6.12048 4.52312 6.47021 4.95633 6.47021H13.0347C13.4678 6.47021 13.819 6.12048 13.819 5.68896C13.819 5.25745 13.4678 4.90771 13.0347 4.90771ZM13.819 8.81396C13.819 8.38245 13.4678 8.03271 13.0347 8.03271H4.95633C4.52312 8.03271 4.17202 8.38245 4.17202 8.81396C4.17202 9.24548 4.52312 9.59521 4.95633 9.59521H13.0347C13.4678 9.59521 13.819 9.24548 13.819 8.81396ZM4.95633 11.1577C4.52312 11.1577 4.17202 11.5074 4.17202 11.939C4.17202 12.3705 4.52312 12.7202 4.95633 12.7202H9.86256C10.2958 12.7202 10.6469 12.3705 10.6469 11.939C10.6469 11.5074 10.2958 11.1577 9.86256 11.1577H4.95633Z" fill="#F47920"/>
</g>
<defs>
<clipPath id="clip0">
<rect width="20" height="20" fill="white" transform="translate(0.0390625 0.220215)"/>
</clipPath>
</defs>
</svg>
