<svg width="21" height="21" viewBox="0 0 21 21" fill="none" xmlns="http://www.w3.org/2000/svg">
<g clip-path="url(#clip0)">
<path d="M18.341 12.1958C18.1793 11.7958 17.7239 11.6025 17.3239 11.7643C16.9238 11.926 16.7306 12.3814 16.8923 12.7814L17.8125 15.0574L15.0797 13.8528C14.8819 13.7656 14.6568 13.7642 14.458 13.8491C13.5241 14.2475 12.5236 14.4496 11.4844 14.4496C7.30185 14.4496 4.49221 11.1748 4.49221 8.11614C4.49221 4.62388 7.62888 1.78271 11.4844 1.78271C15.3399 1.78271 18.4766 4.62388 18.4766 8.11614C18.4766 8.3886 18.4512 8.71485 18.407 9.01117C18.3433 9.43793 18.6376 9.83547 19.0644 9.89914C19.4912 9.96297 19.8887 9.66848 19.9524 9.24172C20.0083 8.86711 20.0391 8.46735 20.0391 8.11614C20.0391 5.99388 19.1404 4.00255 17.5085 2.509C15.8959 1.03306 13.7565 0.220215 11.4844 0.220215C9.21228 0.220215 7.0729 1.03306 5.46029 2.50896C4.00201 3.84365 3.12983 5.57599 2.96065 7.44391C1.12639 8.6586 0.0390885 10.605 0.0390885 12.7016C0.0390885 14.0113 0.451705 15.254 1.23713 16.3234L0.0960416 19.1461C-0.0231379 19.4409 0.0482292 19.7785 0.276549 19.9998C0.425338 20.1441 0.621392 20.2202 0.820493 20.2202C0.92686 20.2202 1.03413 20.1985 1.13545 20.1538L4.42564 18.7034C5.2533 19.0115 6.12818 19.1675 7.03122 19.1675C7.05076 19.1675 7.06993 19.166 7.08911 19.1646C8.39524 19.1547 9.66505 18.8111 10.7648 18.1682C11.7499 17.5923 12.5602 16.8011 13.1283 15.8667C13.6829 15.7671 14.225 15.6167 14.7512 15.4155L18.9426 17.2632C19.044 17.3078 19.1512 17.3296 19.2576 17.3296C19.4567 17.3296 19.6528 17.2535 19.8016 17.1092C20.0299 16.8879 20.1013 16.5503 19.9821 16.2555L18.341 12.1958ZM7.0313 17.603C7.02064 17.603 7.01025 17.6042 6.99966 17.6046C6.20193 17.6005 5.43412 17.4437 4.71705 17.1378C4.51826 17.0529 4.29314 17.0543 4.09533 17.1415L2.26576 17.948L2.85596 16.488C2.96506 16.2182 2.91502 15.91 2.72619 15.6884C1.99045 14.8253 1.60159 13.7925 1.60159 12.7016C1.60159 11.4532 2.12678 10.2702 3.04568 9.37328C3.33178 10.9329 4.139 12.4247 5.3567 13.5967C6.87197 15.055 8.87626 15.8998 11.0405 16.0016C10.0244 17.0017 8.57036 17.603 7.0313 17.603Z" fill="#F47920"/>
<path d="M12.0391 9.22021C12.5913 9.22021 13.0391 8.7725 13.0391 8.22021C13.0391 7.66793 12.5913 7.22021 12.0391 7.22021C11.4868 7.22021 11.0391 7.66793 11.0391 8.22021C11.0391 8.7725 11.4868 9.22021 12.0391 9.22021Z" fill="#F47920"/>
<path d="M15.0391 9.22021C15.5913 9.22021 16.0391 8.7725 16.0391 8.22021C16.0391 7.66793 15.5913 7.22021 15.0391 7.22021C14.4868 7.22021 14.0391 7.66793 14.0391 8.22021C14.0391 8.7725 14.4868 9.22021 15.0391 9.22021Z" fill="#F47920"/>
<path d="M9.03906 9.22021C9.59135 9.22021 10.0391 8.7725 10.0391 8.22021C10.0391 7.66793 9.59135 7.22021 9.03906 7.22021C8.48678 7.22021 8.03906 7.66793 8.03906 8.22021C8.03906 8.7725 8.48678 9.22021 9.03906 9.22021Z" fill="#F47920"/>
</g>
<defs>
<clipPath id="clip0">
<rect width="20" height="20" fill="white" transform="translate(0.0390625 0.220215)"/>
</clipPath>
</defs>
</svg>
