<svg width="21" height="21" viewBox="0 0 21 21" fill="none" xmlns="http://www.w3.org/2000/svg">
<g clip-path="url(#clip0)">
<path d="M9.53906 0.220215C5.95491 0.220215 3.03906 3.13606 3.03906 6.72022C3.03906 10.3042 5.95491 13.2202 9.53906 13.2202C13.123 13.2202 16.0391 10.3042 16.0391 6.72022C16.0391 3.13606 13.123 0.220215 9.53906 0.220215ZM9.53906 11.9415C6.6601 11.9415 4.31775 9.59917 4.31775 6.72022C4.31775 3.84126 6.6601 1.4989 9.53906 1.4989C12.4182 1.4989 14.7604 3.84126 14.7604 6.72022C14.7604 9.59917 12.4182 11.9415 9.53906 11.9415Z" fill="#F47920"/>
<path d="M14.0384 19.2721L13.7215 11.2202L12.4551 11.2772L12.7315 18.2954L10.1132 15.8803C9.78595 15.553 9.29221 15.5526 8.96474 15.8803L6.34663 18.2952L6.62298 11.2772L5.3564 11.2202L5.03948 19.2721C5.03925 19.2815 5.03906 19.2911 5.03906 19.3006C5.03906 19.6599 5.23405 19.9881 5.53597 20.1365C5.83935 20.2862 6.18794 20.2326 6.44571 19.9954L9.53916 17.1421L12.6335 19.9965C12.794 20.1437 12.9903 20.2199 13.1889 20.2199C13.3085 20.2199 13.4287 20.1926 13.5423 20.1365C13.844 19.9881 14.0391 19.6599 14.0391 19.3005C14.0391 19.291 14.0389 19.2815 14.0384 19.2721Z" fill="#F47920"/>
<path d="M12.8597 4.42752C12.6205 4.15111 12.2332 4.15111 11.994 4.42752L9.32757 7.50897L8.08699 6.05789C7.84926 5.77983 7.46172 5.77701 7.22111 6.05174C6.9805 6.32647 6.97806 6.77434 7.21579 7.05239L8.88918 9.00983C9.00386 9.14404 9.1598 9.21971 9.32284 9.22021C9.32346 9.22021 9.32407 9.22021 9.32466 9.22021C9.48689 9.22021 9.6428 9.14568 9.75769 9.0127L12.8596 5.428C13.0989 5.15176 13.0989 4.70368 12.8597 4.42752Z" fill="#F47920"/>
</g>
<defs>
<clipPath id="clip0">
<rect width="20" height="20" fill="white" transform="translate(0.0390625 0.220215)"/>
</clipPath>
</defs>
</svg>
