<svg width="18" height="18" viewBox="0 0 18 18" fill="none" xmlns="http://www.w3.org/2000/svg">
<path d="M13.1276 0H4.87244C2.18573 0 0 2.18573 0 4.87244V13.1277C0 15.8143 2.18573 18 4.87244 18H13.1277C15.8143 18 18 15.8143 18 13.1277V4.87244C18 2.18573 15.8143 0 13.1276 0ZM9 13.9217C6.2861 13.9217 4.07826 11.7139 4.07826 9C4.07826 6.2861 6.2861 4.07826 9 4.07826C11.7139 4.07826 13.9217 6.2861 13.9217 9C13.9217 11.7139 11.7139 13.9217 9 13.9217ZM14.0394 5.23897C13.2374 5.23897 12.5851 4.58666 12.5851 3.78465C12.5851 2.98265 13.2374 2.3302 14.0394 2.3302C14.8414 2.3302 15.4939 2.98265 15.4939 3.78465C15.4939 4.58666 14.8414 5.23897 14.0394 5.23897Z" fill="white"/>
<path d="M9 5.1335C6.8681 5.1335 5.1335 6.86797 5.1335 9C5.1335 11.1319 6.8681 12.8665 9 12.8665C11.132 12.8665 12.8665 11.1319 12.8665 9C12.8665 6.86797 11.132 5.1335 9 5.1335Z" fill="white"/>
<path d="M14.0394 3.38557C13.8194 3.38557 13.6404 3.56465 13.6404 3.78465C13.6404 4.00465 13.8194 4.18373 14.0394 4.18373C14.2596 4.18373 14.4386 4.00479 14.4386 3.78465C14.4386 3.56451 14.2596 3.38557 14.0394 3.38557Z" fill="white"/>
</svg>
