<svg width="21" height="21" viewBox="0 0 21 21" fill="none" xmlns="http://www.w3.org/2000/svg">
<path fill-rule="evenodd" clip-rule="evenodd" d="M4.03125 9.15942C4.04326 5.6256 6.91772 2.7706 10.4516 2.78261C13.9854 2.79462 16.8404 5.66907 16.8284 9.20292V9.27534C16.7849 11.5724 15.5022 13.6957 13.9298 15.3551C13.0305 16.2889 12.0262 17.1157 10.9371 17.8188C10.6458 18.0708 10.2138 18.0708 9.92256 17.8188C8.29881 16.7619 6.8737 15.4276 5.71241 13.8768C4.67737 12.5245 4.08973 10.8831 4.03125 9.18117V9.15942Z" stroke="white" stroke-width="1.5" stroke-linecap="round" stroke-linejoin="round"/>
<path d="M10.4296 11.3333C11.5622 11.3333 12.4804 10.4152 12.4804 9.2826C12.4804 8.15001 11.5622 7.23187 10.4296 7.23187C9.29705 7.23187 8.37891 8.15001 8.37891 9.2826C8.37891 10.4152 9.29705 11.3333 10.4296 11.3333Z" stroke="white" stroke-width="1.5" stroke-linecap="round" stroke-linejoin="round"/>
</svg>
