<svg width="22" height="16" viewBox="0 0 22 16" fill="none" xmlns="http://www.w3.org/2000/svg">
<path d="M14.5833 8.11938L22 13.0795V2.9498L14.5833 8.11938Z" fill="white"/>
<path d="M0 2.9498V13.0795L7.41672 8.11938L0 2.9498Z" fill="white"/>
<path d="M20.6249 0H1.37497C0.688846 0 0.144349 0.541104 0.0412242 1.23785L10.9999 8.87585L21.9586 1.23785C21.8555 0.541104 21.311 0 20.6249 0Z" fill="white"/>
<path d="M13.3236 8.99765L11.378 10.3533C11.2625 10.4333 11.1319 10.4726 10.9999 10.4726C10.8679 10.4726 10.7373 10.4333 10.6218 10.3533L8.67614 8.99619L0.0439164 14.7723C0.149791 15.4633 0.691539 16 1.37491 16H20.6248C21.3082 16 21.85 15.4633 21.9558 14.7723L13.3236 8.99765Z" fill="white"/>
</svg>
