<svg width="16" height="16" viewBox="0 0 16 16" fill="none" xmlns="http://www.w3.org/2000/svg">
<path d="M15.6833 3.76409C15.2133 3.23364 14.534 2.91659 14 2.73045V1.68182C14 1.30545 13.7013 1 13.3333 1H10.6667C9.57733 1 8.60867 1.53727 8 2.36568C7.39133 1.53727 6.42267 1 5.33333 1H2.66667C2.29867 1 2 1.30545 2 1.68182V2.73045C1.466 2.91659 0.786667 3.23364 0.316 3.76477C0.112 3.99523 0 4.30818 0 4.645L0.00133333 11.7843C0.002 15.6959 0.00199999 15.6959 0.319333 15.8957C0.558667 16.0464 0.862667 16.0286 1.08333 15.8514C3.09733 14.2252 5.17933 14.2375 7.63467 15.8875C7.74467 15.9625 7.87267 16 8 16C8.12733 16 8.25533 15.9625 8.366 15.8875C10.8213 14.2375 12.9027 14.2259 14.9173 15.8514C15.138 16.03 15.442 16.047 15.6813 15.8957C15.998 15.6959 15.998 15.6959 15.9993 11.7843L16 4.645C16 4.30818 15.888 3.99523 15.6833 3.76409ZM10.6667 2.36364H12.6667V11.1523C11.084 11.0841 9.778 11.7052 8.66667 13.0402V4.40909C8.66667 3.28136 9.564 2.36364 10.6667 2.36364ZM3.33333 2.36364H5.33333C6.436 2.36364 7.33333 3.28136 7.33333 4.40909V13.0402C6.27733 11.7727 5.04733 11.1468 3.57267 11.1468C3.49333 11.1468 3.414 11.1482 3.33333 11.1523V2.36364ZM1.33533 14.0466C1.33467 12.0482 1.334 8.16386 1.33333 5.98682L1.30467 4.67977C1.45667 4.50795 1.70333 4.34364 2 4.19977V11.9091C2 12.1095 2.086 12.2998 2.236 12.4293C2.386 12.5582 2.584 12.6155 2.77667 12.5814C3.77867 12.4102 4.90267 12.4532 6.026 13.5952C4.38467 13.0764 2.81533 13.2195 1.33533 14.0466ZM14.6667 5.98682C14.6667 8.16386 14.666 12.0482 14.6653 14.0466C13.1853 13.2195 11.616 13.0777 9.97533 13.5959C11.0993 12.4539 12.2233 12.4109 13.2247 12.582C13.4167 12.6155 13.6153 12.5589 13.7653 12.43C13.914 12.2998 14 12.1095 14 11.9091V4.19841C14.294 4.33955 14.5333 4.49568 14.6667 4.645V5.98682Z" fill="#168EC4"/>
</svg>
