<svg width="20" height="21" viewBox="0 0 20 21" fill="none" xmlns="http://www.w3.org/2000/svg">
<g clip-path="url(#clip0)">
<path d="M9.99998 0.450806C4.47715 0.450806 0 4.92795 0 10.4508C0 15.9736 4.47715 20.4508 9.99998 20.4508C15.5228 20.4508 20 15.9736 20 10.4508C19.9941 4.93042 15.5204 0.456707 9.99998 0.450806ZM9.99998 19.0222C5.26611 19.0222 1.42856 15.1847 1.42856 10.4508C1.42856 5.71692 5.26611 1.87936 9.99998 1.87936C14.7338 1.87936 18.5714 5.71692 18.5714 10.4508C18.5663 15.1826 14.7318 19.0171 9.99998 19.0222Z" fill="#F47920"/>
<path d="M14.2131 10.1321C14.1439 9.99324 14.0313 9.88065 13.8924 9.81143L8.17813 6.95427C7.82522 6.77795 7.39623 6.92104 7.21987 7.27394C7.17027 7.37317 7.14449 7.48262 7.14453 7.59357V13.3079C7.14436 13.7024 7.46399 14.0223 7.8585 14.0225C7.96945 14.0226 8.07889 13.9968 8.17813 13.9472L13.8924 11.09C14.2455 10.9141 14.3891 10.4852 14.2131 10.1321ZM8.57313 12.1522V8.74929L11.976 10.4507L8.57313 12.1522Z" fill="#F47920"/>
</g>
<defs>
<clipPath id="clip0">
<rect width="20" height="20" fill="white" transform="translate(0 0.450806)"/>
</clipPath>
</defs>
</svg>
