<svg width="21" height="21" viewBox="0 0 21 21" fill="none" xmlns="http://www.w3.org/2000/svg">
<g clip-path="url(#clip0)">
<path d="M10.1484 0.0125732C4.62558 0.0125732 0.148438 4.48972 0.148438 10.0126C0.148438 15.5354 4.62558 20.0125 10.1484 20.0125C15.6713 20.0125 20.1484 15.5354 20.1484 10.0126C20.1425 4.49219 15.6688 0.0184745 10.1484 0.0125732ZM10.1484 18.584C5.41455 18.584 1.57699 14.7464 1.57699 10.0126C1.57699 5.27868 5.41455 1.44113 10.1484 1.44113C14.8823 1.44113 18.7198 5.27868 18.7198 10.0126C18.7147 14.7443 14.8802 18.5789 10.1484 18.584Z" fill="#168EC4"/>
<path d="M14.3615 9.69387C14.2923 9.55501 14.1797 9.44242 14.0408 9.3732L8.32656 6.51604C7.97366 6.33971 7.54467 6.48281 7.3683 6.83571C7.31871 6.93494 7.29293 7.04439 7.29297 7.15534V12.8697C7.2928 13.2642 7.61243 13.5841 8.00693 13.5843C8.11789 13.5843 8.22733 13.5586 8.32656 13.509L14.0408 10.6518C14.3939 10.4758 14.5375 10.0469 14.3615 9.69387ZM8.72157 11.7139V8.31106L12.1244 10.0125L8.72157 11.7139Z" fill="#168EC4"/>
</g>
<defs>
<clipPath id="clip0">
<rect width="20" height="20" fill="white" transform="translate(0.148438 0.0125732)"/>
</clipPath>
</defs>
</svg>
