<svg width="13" height="11" viewBox="0 0 13 11" fill="none" xmlns="http://www.w3.org/2000/svg">
<path d="M4.50007 0H1.50002C1.0833 0 0.72916 0.145849 0.437436 0.437464C0.145848 0.729135 0 1.08328 0 1.50003V4.49997C0 4.91669 0.145766 5.27078 0.437436 5.5624C0.729133 5.85398 1.08338 5.99989 1.50002 5.99989H3.25001C3.45828 5.99989 3.6354 6.07284 3.78125 6.21863C3.9271 6.36434 4 6.54152 4 6.74995V6.99981C4 7.55193 3.80465 8.02314 3.41406 8.41384C3.02344 8.80434 2.55213 8.99967 1.99996 8.99967H1.50002C1.36452 8.99967 1.24737 9.04928 1.14837 9.14817C1.04945 9.24706 0.999952 9.36429 0.999952 9.49971V10.4998C0.999952 10.635 1.04945 10.7525 1.14837 10.8514C1.24746 10.9503 1.36449 10.9999 1.50002 10.9999H1.99999C2.5417 10.9999 3.05863 10.8943 3.55085 10.6834C4.04304 10.4725 4.46879 10.1873 4.82819 9.82788C5.1875 9.46846 5.47268 9.04279 5.6836 8.55057C5.8945 8.05838 5.99998 7.54148 5.99998 6.99984V1.49992C5.99998 1.08317 5.85413 0.729053 5.56252 0.437437C5.27091 0.145821 4.91668 0 4.50007 0Z" fill="white"/>
<path d="M12.5623 0.437464C12.2707 0.145849 11.9165 0 11.4998 0H8.49986C8.08314 0 7.729 0.145849 7.43738 0.437464C7.14579 0.729162 7 1.08328 7 1.50003V4.49997C7 4.91669 7.14579 5.27078 7.43738 5.5624C7.729 5.85398 8.08316 5.99989 8.49986 5.99989H10.2499C10.4581 5.99989 10.6354 6.07284 10.7812 6.21863C10.9269 6.36443 10.9999 6.54152 10.9999 6.74995V6.99981C10.9999 7.55193 10.8046 8.02314 10.4139 8.41384C10.0233 8.80434 9.55213 8.99967 8.9999 8.99967H8.49986C8.36446 8.99967 8.24721 9.04928 8.14832 9.14817C8.04934 9.24706 7.99979 9.36429 7.99979 9.49971V10.4998C7.99979 10.635 8.04934 10.7525 8.14832 10.8514C8.24718 10.9503 8.36444 10.9999 8.49986 10.9999H8.9999C9.54154 10.9999 10.0584 10.8943 10.5507 10.6834C11.0428 10.4725 11.4685 10.1873 11.8279 9.82788C12.1873 9.46846 12.4727 9.04268 12.6835 8.55057C12.8943 8.05849 12.9999 7.54148 12.9999 6.99984V1.49992C12.9998 1.08317 12.8541 0.729053 12.5623 0.437464Z" fill="white"/>
</svg>
