<svg width="36" height="35" viewBox="0 0 36 35" fill="none" xmlns="http://www.w3.org/2000/svg">
<path d="M16.8116 0.955478C17.3532 0.0642463 18.6468 0.0642452 19.1884 0.955477L24.3162 9.39306C24.5096 9.71129 24.8225 9.93866 25.1849 10.0243L34.7941 12.2937C35.8091 12.5334 36.2088 13.7636 35.5286 14.5542L29.0885 22.0383C28.8457 22.3206 28.7261 22.6885 28.7567 23.0596L29.5677 32.8998C29.6534 33.9392 28.6069 34.6995 27.6449 34.2969L18.5369 30.4847C18.1934 30.341 17.8066 30.341 17.4631 30.4847L8.35513 34.2968C7.3931 34.6995 6.34659 33.9392 6.43226 32.8998L7.24329 23.0596C7.27388 22.6885 7.15435 22.3206 6.91146 22.0383L0.471404 14.5542C-0.208835 13.7636 0.190891 12.5334 1.20588 12.2937L10.8151 10.0243C11.1775 9.93866 11.4904 9.71129 11.6838 9.39306L16.8116 0.955478Z" fill="#DFDEE2"/>
</svg>
