<svg width="30" height="28" viewBox="0 0 30 28" fill="none" xmlns="http://www.w3.org/2000/svg">
<path d="M13.8116 0.955477C14.3532 0.0642449 15.6468 0.0642451 16.1884 0.955477L19.9925 7.21497C20.1859 7.5332 20.4988 7.76057 20.8612 7.84616L27.9899 9.52977C29.0049 9.76948 29.4046 10.9997 28.7244 11.7902L23.9468 17.3424C23.7039 17.6247 23.5843 17.9926 23.6149 18.3637L24.2166 25.6637C24.3023 26.7031 23.2558 27.4634 22.2937 27.0608L15.5369 24.2327C15.1934 24.089 14.8066 24.089 14.4631 24.2327L7.70627 27.0608C6.74423 27.4634 5.69773 26.7031 5.7834 25.6637L6.38507 18.3637C6.41566 17.9926 6.29612 17.6247 6.05323 17.3424L1.27563 11.7902C0.595388 10.9997 0.995117 9.76948 2.0101 9.52977L9.13876 7.84616C9.50117 7.76057 9.81412 7.5332 10.0075 7.21497L13.8116 0.955477Z" fill="#F47920"/>
</svg>
