<svg width="17" height="17" viewBox="0 0 17 17" fill="none" xmlns="http://www.w3.org/2000/svg">
<g clip-path="url(#clip0)">
<path d="M14.6328 2.22021H1.44531C0.670875 2.22021 0.0390625 2.84163 0.0390625 3.60483V12.8356C0.0390625 13.5962 0.668063 14.2202 1.44531 14.2202H14.6328C15.4053 14.2202 16.0391 13.6009 16.0391 12.8356V3.60483C16.0391 2.84421 15.4101 2.22021 14.6328 2.22021ZM14.4386 3.14329L8.06888 9.41508L1.64403 3.14329H14.4386ZM0.976562 12.6445V3.79157L5.49153 8.19895L0.976562 12.6445ZM1.63947 13.2971L6.15728 8.84883L7.74031 10.3941C7.92356 10.573 8.21928 10.5724 8.40178 10.3927L9.94531 8.87292L14.4387 13.2971H1.63947ZM15.1016 12.6444L10.6082 8.22021L15.1016 3.79597V12.6444Z" fill="white"/>
</g>
<defs>
<clipPath id="clip0">
<rect width="16" height="16" fill="white" transform="translate(0.0390625 0.220215)"/>
</clipPath>
</defs>
</svg>
