<svg width="17" height="17" viewBox="0 0 17 17" fill="none" xmlns="http://www.w3.org/2000/svg">
<g clip-path="url(#clip0)">
<path d="M0.315191 8.01844L4.22797 9.96817C4.37931 10.0428 4.55798 10.0375 4.70265 9.95284L8.18542 7.92845L6.07736 9.7962C5.97002 9.89152 5.90869 10.0275 5.90869 10.1708V14.7202C5.90869 15.2001 6.52137 15.4021 6.80871 15.0208L8.50009 12.7725L12.6829 15.1541C12.9762 15.3228 13.3522 15.1535 13.4202 14.8182L16.029 1.81995C16.107 1.42934 15.7183 1.11072 15.357 1.25603L0.356526 7.10523C-0.0461523 7.26254 -0.072153 7.8258 0.315191 8.01844ZM14.8689 2.51986L12.5762 13.943L8.61276 11.6859C8.39676 11.5626 8.11875 11.6173 7.96541 11.8199L6.90871 13.2244V10.3955L12.6095 5.34547C13.0609 4.94619 12.5422 4.23629 12.0269 4.53891L4.43331 8.95298L1.7719 7.62716L14.8689 2.51986Z" fill="white"/>
</g>
<defs>
<clipPath id="clip0">
<rect width="16" height="16" fill="white" transform="translate(0.0390625 0.220215)"/>
</clipPath>
</defs>
</svg>
