<svg width="17" height="17" viewBox="0 0 17 17" fill="none" xmlns="http://www.w3.org/2000/svg">
<g clip-path="url(#clip0)">
<path d="M1.84373 16.2202H7.71306C7.98906 16.2202 8.21306 15.9962 8.21306 15.7202C8.21306 15.6135 8.2064 11.1602 8.20573 11.0535C8.20573 10.7775 7.98173 10.5535 7.70573 10.5535H6.20573V8.88688H7.70573C7.98173 8.88688 8.20573 8.66288 8.20573 8.38688V6.50888C8.20573 4.87955 9.53173 3.55355 11.1611 3.55355H12.5391V5.22021H11.7057C11.0624 5.22021 10.5391 5.74355 10.5391 6.38688V8.38688C10.5391 8.66288 10.7631 8.88688 11.0391 8.88688H13.0657L12.6491 10.5535H11.0391C10.7631 10.5535 10.5391 10.7775 10.5391 11.0535V15.7202C10.5391 15.9962 10.7631 16.2202 11.0391 16.2202H14.2344C15.2297 16.2202 16.0391 15.4109 16.0391 14.4155V2.02488C16.0391 1.02955 15.2297 0.220215 14.2344 0.220215H1.84373C0.848396 0.220215 0.0390625 1.02955 0.0390625 2.02488V14.4162C0.0390625 15.4109 0.848396 16.2202 1.84373 16.2202ZM1.03906 2.02488C1.03906 1.58088 1.39973 1.22021 1.84373 1.22021H14.2351C14.6791 1.22021 15.0397 1.58088 15.0397 2.02488V14.4162C15.0397 14.8602 14.6791 15.2209 14.2351 15.2209H11.5391V11.5535H13.0391C13.2684 11.5535 13.4684 11.3975 13.5244 11.1749L14.1911 8.50821C14.2697 8.19288 14.0317 7.88688 13.7057 7.88688H11.5391V6.38688C11.5391 6.29621 11.6151 6.22021 11.7057 6.22021H13.0391C13.3151 6.22021 13.5391 5.99621 13.5391 5.72021V3.05355C13.5391 2.77755 13.3151 2.55355 13.0391 2.55355H11.1611C8.9804 2.55355 7.20573 4.32821 7.20573 6.50888V7.88688H5.70573C5.42973 7.88688 5.20573 8.11088 5.20573 8.38688V11.0535C5.20573 11.3295 5.42973 11.5535 5.70573 11.5535H7.20573V15.2202H1.84373C1.39973 15.2202 1.03906 14.8595 1.03906 14.4155V2.02488Z" fill="white"/>
</g>
<defs>
<clipPath id="clip0">
<rect width="16" height="16" fill="white" transform="translate(0.0390625 0.220215)"/>
</clipPath>
</defs>
</svg>
