<svg width="17" height="17" viewBox="0 0 17 17" fill="none" xmlns="http://www.w3.org/2000/svg">
<g clip-path="url(#clip0)">
<path d="M8.13573 13.2202C10.4504 13.2202 9.62506 11.7549 9.80373 11.3335C9.80106 11.0189 9.7984 10.7162 9.80906 10.5322C9.95573 10.5735 10.3017 10.7489 11.0164 11.4435C12.1197 12.5569 12.4017 13.2202 13.2931 13.2202H14.9337C15.4537 13.2202 15.7244 13.0049 15.8597 12.8242C15.9904 12.6495 16.1184 12.3429 15.9784 11.8655C15.6124 10.7162 13.4777 8.73155 13.3451 8.52221C13.3651 8.48355 13.3971 8.43221 13.4137 8.40555H13.4124C13.8337 7.84888 15.4417 5.43955 15.6784 4.47555C15.6791 4.47421 15.6797 4.47221 15.6797 4.47021C15.8077 4.03021 15.6904 3.74488 15.5691 3.58355C15.3864 3.34221 15.0957 3.22021 14.7031 3.22021H13.0624C12.5131 3.22021 12.0964 3.49688 11.8857 4.00155C11.5331 4.89821 10.5424 6.74221 9.79973 7.39488C9.77706 6.47022 9.7924 5.76421 9.8044 5.23955C9.8284 4.21621 9.90573 3.22021 8.84373 3.22021H6.26506C5.59973 3.22021 4.96306 3.94688 5.6524 4.80955C6.25506 5.56555 5.86906 5.98688 5.99906 8.08421C5.4924 7.54088 4.59106 6.07355 3.95373 4.19821C3.77506 3.69088 3.5044 3.22088 2.7424 3.22088H1.10173C0.436396 3.22088 0.0390625 3.58355 0.0390625 4.19088C0.0390625 5.55488 3.0584 13.2202 8.13573 13.2202ZM2.7424 4.22088C2.88706 4.22088 2.90173 4.22088 3.00906 4.52555C3.66173 6.44755 5.12573 9.29155 6.19506 9.29155C6.9984 9.29155 6.9984 8.46821 6.9984 8.15821L6.99773 5.69021C6.95373 4.87355 6.6564 4.46688 6.46106 4.22021L8.79973 4.22288C8.80106 4.23422 8.7864 6.95288 8.8064 7.61155C8.8064 8.54688 9.54906 9.08288 10.7084 7.90955C11.9317 6.52888 12.7777 4.46488 12.8117 4.38088C12.8617 4.26088 12.9051 4.22021 13.0624 4.22021H14.7031H14.7097C14.7091 4.22221 14.7091 4.22421 14.7084 4.22621C14.5584 4.92621 13.0777 7.15688 12.5824 7.84955C12.5744 7.86022 12.5671 7.87155 12.5597 7.88288C12.3417 8.23888 12.1644 8.63222 12.5897 9.18555H12.5904C12.6291 9.23221 12.7297 9.34155 12.8764 9.49355C13.3324 9.96421 14.8964 11.5735 15.0351 12.2135C14.9431 12.2282 14.8431 12.2175 13.2931 12.2209C12.9631 12.2209 12.7051 11.7275 11.7204 10.7342C10.8351 9.87288 10.2604 9.52088 9.73706 9.52088C8.72106 9.52088 8.79506 10.3455 8.8044 11.3429C8.80773 12.4242 8.80106 12.0822 8.8084 12.1502C8.74906 12.1735 8.57906 12.2202 8.13573 12.2202C3.90573 12.2202 1.15106 5.50622 1.04506 4.22288C1.08173 4.21955 1.5864 4.22155 2.7424 4.22088Z" fill="white"/>
</g>
<defs>
<clipPath id="clip0">
<rect width="16" height="16" fill="white" transform="translate(0.0390625 0.220215)"/>
</clipPath>
</defs>
</svg>
