<svg width="17" height="17" viewBox="0 0 17 17" fill="none" xmlns="http://www.w3.org/2000/svg">
<g clip-path="url(#clip0)">
<path d="M3.20573 16.2202H12.8724C14.6184 16.2202 16.0391 14.7995 16.0391 13.0535V3.38688C16.0391 1.64088 14.6184 0.220215 12.8724 0.220215H3.20573C1.45973 0.220215 0.0390625 1.64088 0.0390625 3.38688V13.0535C0.0390625 14.7995 1.45973 16.2202 3.20573 16.2202ZM1.03906 3.38688C1.03906 2.19221 2.01106 1.22021 3.20573 1.22021H12.8724C14.0671 1.22021 15.0391 2.19221 15.0391 3.38688V13.0535C15.0391 14.2482 14.0671 15.2202 12.8724 15.2202H3.20573C2.01106 15.2202 1.03906 14.2482 1.03906 13.0535V3.38688Z" fill="white"/>
<path d="M8.03906 12.2202C10.2446 12.2202 12.0391 10.4258 12.0391 8.22022C12.0391 6.01467 10.2446 4.22021 8.03906 4.22021C5.83352 4.22021 4.03906 6.01467 4.03906 8.22022C4.03906 10.4258 5.83352 12.2202 8.03906 12.2202ZM8.03906 5.19901C9.70497 5.19901 11.0603 6.55431 11.0603 8.22022C11.0603 9.88612 9.70497 11.2414 8.03906 11.2414C6.37316 11.2414 5.01786 9.88612 5.01786 8.22022C5.01786 6.55431 6.37316 5.19901 8.03906 5.19901Z" fill="white"/>
<path d="M12.0388 5.22021C12.6092 5.22021 13.0391 4.79023 13.0391 4.22021C13.0391 3.62579 12.5866 3.22021 12.0394 3.22021C11.4689 3.22021 11.0391 3.6502 11.0391 4.22021C11.0391 4.81347 11.4892 5.22021 12.0388 5.22021ZM12.1412 4.12434C12.324 4.28646 11.9069 4.48343 11.9069 4.2208C11.9069 4.06391 12.1192 4.10458 12.1412 4.12434Z" fill="white"/>
</g>
<defs>
<clipPath id="clip0">
<rect width="16" height="16" fill="white" transform="translate(0.0390625 0.220215)"/>
</clipPath>
</defs>
</svg>
