<svg width="16" height="16" viewBox="0 0 16 16" fill="none" xmlns="http://www.w3.org/2000/svg">
<path d="M7.48092 1.66583C7.67566 1.34539 8.14075 1.3454 8.33549 1.66583L10.2419 4.80271C10.4505 5.14596 10.788 5.3912 11.1789 5.48353L14.7514 6.32725C15.1163 6.41343 15.26 6.85576 15.0154 7.13999L12.6212 9.9224C12.3592 10.2269 12.2303 10.6237 12.2633 11.024L12.5648 14.6823C12.5956 15.056 12.2193 15.3294 11.8734 15.1846L8.48735 13.7674L8.2943 14.2286L8.48734 13.7674C8.11682 13.6123 7.69958 13.6123 7.32906 13.7674L3.94297 15.1846C3.59707 15.3294 3.22081 15.056 3.25161 14.6823L3.55313 11.024C3.58612 10.6237 3.45719 10.2269 3.1952 9.9224L0.800957 7.13999C0.556381 6.85576 0.700101 6.41343 1.06503 6.32725L4.63748 5.48353C5.02839 5.3912 5.36595 5.14596 5.57455 4.80271L7.48092 1.66583Z" stroke="#F47920"/>
</svg>
