<svg width="31" height="29" viewBox="0 0 31 29" fill="none" xmlns="http://www.w3.org/2000/svg">
<path fill-rule="evenodd" clip-rule="evenodd" d="M16.2276 1.76788L19.6051 8.56225C19.7743 8.90496 20.1009 9.14413 20.4801 9.19954L28.0415 10.2918C28.3478 10.3327 28.6234 10.4931 28.8115 10.7381C29.1645 11.1975 29.1105 11.8478 28.6876 12.243L23.2072 17.5426C22.9286 17.8051 22.8047 18.1901 22.8776 18.5649L24.1901 26.0433C24.282 26.663 23.859 27.2435 23.2393 27.3441C22.9826 27.3835 22.7201 27.3426 22.4868 27.2274L15.7522 23.6968C15.4138 23.513 15.0084 23.513 14.6701 23.6968L7.88597 27.2464C7.31868 27.5351 6.62451 27.3208 6.31534 26.7651C6.19722 26.5405 6.15639 26.2853 6.19722 26.036L7.50972 18.5576C7.57534 18.1843 7.45138 17.8008 7.18013 17.5368L1.67055 12.2387C1.22139 11.7924 1.21847 11.0662 1.66618 10.617C1.66764 10.6156 1.66909 10.6127 1.67055 10.6112C1.85576 10.4435 2.08326 10.3312 2.32972 10.2875L9.89263 9.19517C10.2703 9.13538 10.5956 8.89913 10.7676 8.55642L14.1422 1.76788C14.2778 1.49225 14.5184 1.28079 14.8101 1.18454C15.1032 1.08684 15.424 1.11017 15.6997 1.24871C15.9257 1.361 16.1109 1.54329 16.2276 1.76788Z" fill="#168EC4" stroke="#168EC4" stroke-width="2" stroke-linecap="round" stroke-linejoin="round"/>
</svg>
