<svg width="16" height="16" viewBox="0 0 16 16" fill="none" xmlns="http://www.w3.org/2000/svg">
<path d="M7.14543 1.40616C7.53491 0.765286 8.46509 0.765285 8.85456 1.40616L10.7609 4.54303C10.9 4.77187 11.125 4.93537 11.3857 4.99691L14.9581 5.84063C15.688 6.01301 15.9754 6.89766 15.4862 7.46611L13.092 10.2485C12.9173 10.4515 12.8314 10.7161 12.8534 10.9829L13.1549 14.6412C13.2165 15.3887 12.464 15.9354 11.7722 15.6458L8.3861 14.2286C8.13908 14.1252 7.86092 14.1252 7.61391 14.2286L4.22781 15.6458C3.53602 15.9354 2.78349 15.3887 2.84509 14.6412L3.14662 10.9829C3.16861 10.7161 3.08266 10.4515 2.908 10.2485L0.513754 7.46611C0.0246018 6.89766 0.312041 6.01301 1.0419 5.84063L4.61435 4.99691C4.87496 4.93537 5.09999 4.77187 5.23906 4.54303L7.14543 1.40616Z" fill="#F47920"/>
</svg>
