<svg width="90" height="90" viewBox="0 0 90 90" fill="none" xmlns="http://www.w3.org/2000/svg">
<g clip-path="url(#clip0)">
<path d="M45.0061 0C32.1488 0 21.6387 10.5102 21.6387 23.3674C21.6387 36.2246 32.1488 46.7348 45.0061 46.7348C57.8633 46.7348 68.3734 36.2246 68.3734 23.3674C68.3734 10.5102 57.8633 0 45.0061 0Z" fill="#168ec4"/>
<path d="M85.1094 65.4083C84.4971 63.8777 83.6809 62.4492 82.7626 61.1226C78.0686 54.1837 70.8239 49.5919 62.6606 48.4695C61.6403 48.3675 60.5178 48.5714 59.7014 49.1837C55.4157 52.347 50.3137 53.9796 45.0075 53.9796C39.7012 53.9796 34.5993 52.347 30.3135 49.1837C29.4971 48.5714 28.3747 48.2654 27.3544 48.4695C19.1911 49.5919 11.8442 54.1837 7.2524 61.1226C6.33404 62.4492 5.51763 63.9798 4.90552 65.4083C4.59947 66.0206 4.70142 66.7349 5.00748 67.3472C5.82388 68.7757 6.84419 70.2044 7.76255 71.4288C9.19107 73.3677 10.7217 75.1023 12.4565 76.7349C13.885 78.1634 15.5176 79.49 17.1504 80.8165C25.2116 86.837 34.9055 90.0001 44.9055 90.0001C54.9055 90.0001 64.5995 86.8368 72.6606 80.8165C74.2932 79.5921 75.9258 78.1634 77.3546 76.7349C78.9872 75.1023 80.6198 73.3675 82.0485 71.4288C83.0688 70.1023 83.9874 68.7757 84.8036 67.3472C85.3135 66.7349 85.4155 66.0204 85.1094 65.4083Z" fill="#168ec4"/>
</g>
<defs>
<clipPath id="clip0">
<rect width="90" height="90" fill="white"/>
</clipPath>
</defs>
</svg>
