<svg width="25" height="14" viewBox="0 0 25 14" fill="none" xmlns="http://www.w3.org/2000/svg">
<path d="M24.8672 12.6435C24.8367 12.5796 24.8086 12.5262 24.7823 12.4837C24.3483 11.7171 23.5198 10.7757 22.2964 9.65994L22.2701 9.63455L22.2572 9.62148L22.2443 9.60916H22.2313C21.6759 9.08937 21.3244 8.74024 21.1772 8.561C20.9083 8.22082 20.8474 7.87579 20.995 7.52665C21.0996 7.26265 21.4899 6.70478 22.1667 5.85266C22.5223 5.40158 22.8042 5.03975 23.0127 4.76641C24.5138 2.8075 25.1643 1.55584 24.9649 1.01028L24.8866 0.882578C24.8345 0.805656 24.6998 0.735455 24.483 0.671602C24.2661 0.607749 23.9884 0.597667 23.6503 0.639862L19.9017 0.666001C19.815 0.657412 19.7283 0.659653 19.6411 0.671975C19.5544 0.685045 19.4981 0.69774 19.4719 0.710436C19.4456 0.723506 19.4243 0.733961 19.4068 0.742176L19.3547 0.780637C19.3113 0.806029 19.2638 0.850838 19.2117 0.915065C19.1596 0.978918 19.1158 1.05323 19.0816 1.13874C18.6738 2.16935 18.2097 3.12752 17.6889 4.01362C17.3678 4.54162 17.0726 4.99979 16.8041 5.38702C16.5351 5.77499 16.3095 6.06028 16.1273 6.24287C15.9451 6.42584 15.78 6.57334 15.6328 6.6835C15.4852 6.79477 15.3722 6.84107 15.2946 6.82427C15.2163 6.80747 15.1425 6.79029 15.0732 6.77274C14.9519 6.69619 14.8537 6.59201 14.7803 6.45982C14.7065 6.32801 14.6567 6.16184 14.6304 5.9617C14.6046 5.76155 14.589 5.58903 14.5852 5.44415C14.5806 5.29927 14.5829 5.09501 14.5916 4.83101C14.6004 4.56701 14.6046 4.38852 14.6046 4.29442C14.6046 3.97105 14.611 3.61967 14.6243 3.24029C14.6373 2.86128 14.6483 2.56105 14.6567 2.33962C14.6654 2.11856 14.6696 1.88406 14.6696 1.63687C14.6696 1.39042 14.6544 1.19624 14.624 1.05547C14.5935 0.915065 14.5479 0.779144 14.4874 0.646583C14.4265 0.51477 14.3375 0.412456 14.2204 0.340387C14.1032 0.267946 13.9579 0.210441 13.7844 0.167872C13.3241 0.065558 12.7387 0.0106668 12.0273 0.001705C10.4132 -0.014725 9.37626 0.0875892 8.91635 0.308648C8.73413 0.402747 8.56904 0.53008 8.42182 0.692139C8.26547 0.879591 8.24379 0.982279 8.35677 0.998335C8.87755 1.07526 9.24616 1.2586 9.46299 1.54799L9.54136 1.70109C9.60184 1.81237 9.66271 2.00803 9.72357 2.28884C9.78444 2.57002 9.82324 2.88069 9.84073 3.22162C9.8841 3.84334 9.8841 4.37545 9.84073 4.81869C9.79737 5.26193 9.75628 5.60658 9.7171 5.85303C9.67792 6.10023 9.61934 6.3 9.54136 6.45348C9.46299 6.60732 9.41126 6.70105 9.38501 6.73503C9.35876 6.76901 9.33746 6.79029 9.31996 6.79888C9.20698 6.84107 9.09019 6.86273 8.96846 6.86273C8.84673 6.86273 8.69952 6.80299 8.52567 6.6835C8.3522 6.56475 8.17189 6.40045 7.98549 6.19172C7.79871 5.98335 7.58873 5.69135 7.35402 5.31644C7.11969 4.94191 6.87661 4.49905 6.62516 3.98785L6.41708 3.61706C6.28698 3.37882 6.10895 3.03155 5.88337 2.57599C5.65779 2.12043 5.45807 1.67981 5.28461 1.25337C5.21499 1.07488 5.11114 0.93859 4.97229 0.84449L4.90724 0.806029C4.86388 0.772049 4.79426 0.735828 4.69878 0.69774C4.60292 0.659279 4.50363 0.631647 4.3994 0.61447L0.83309 0.639862C0.468661 0.639862 0.221397 0.721265 0.0912976 0.882952L0.0391819 0.959501C0.0129338 1.00244 0 1.07078 0 1.16413C0 1.25823 0.026248 1.37286 0.0783637 1.50879C0.59914 2.71004 1.16518 3.86836 1.77688 4.98374C2.38895 6.09986 2.92 6.99865 3.37154 7.67975C3.8227 8.3616 4.28262 9.00424 4.75128 9.60916C5.21994 10.2141 5.52997 10.6013 5.68175 10.7716C5.83353 10.9422 5.9526 11.0699 6.03971 11.1551L6.36496 11.462C6.57304 11.6663 6.87927 11.9112 7.2825 12.1965C7.68611 12.4822 8.13271 12.763 8.62305 13.0393C9.11302 13.3164 9.68401 13.5415 10.3345 13.7167C10.9854 13.8914 11.6188 13.9616 12.2346 13.9273H13.7315C14.0355 13.9019 14.2652 13.8085 14.4212 13.6461L14.4733 13.5822C14.5079 13.5315 14.5407 13.4523 14.5711 13.3462C14.6011 13.2398 14.6167 13.1226 14.6167 12.9949C14.6076 12.6285 14.6361 12.2981 14.7012 12.0046C14.7662 11.7107 14.84 11.4893 14.9226 11.3399C15.0051 11.1913 15.098 11.0655 15.2026 10.9631C15.3068 10.8608 15.3802 10.7996 15.424 10.7779C15.4673 10.757 15.5023 10.7421 15.5282 10.7331C15.7363 10.6652 15.9813 10.7313 16.2635 10.931C16.5454 11.1316 16.8102 11.378 17.0574 11.6722C17.3047 11.9661 17.6018 12.2958 17.9491 12.6625C18.296 13.0288 18.5996 13.3011 18.8602 13.4799L19.1208 13.6338C19.2942 13.7357 19.5198 13.8294 19.7975 13.9149C20.0752 13.9997 20.3183 14.0214 20.5264 13.9788L23.8583 13.9273C24.1881 13.9273 24.4442 13.8742 24.6264 13.7674C24.8086 13.6618 24.917 13.5438 24.9516 13.4161C24.9862 13.2884 24.9885 13.1442 24.9581 12.9818C24.9277 12.8201 24.8972 12.7073 24.8672 12.6435Z" fill="white"/>
</svg>
