<svg width="19" height="18" viewBox="0 0 19 18" fill="none" xmlns="http://www.w3.org/2000/svg">
<path fill-rule="evenodd" clip-rule="evenodd" d="M10.1392 1.58758L12.0892 5.47011C12.1869 5.66594 12.3755 5.80261 12.5944 5.83428L16.9601 6.45845C17.1369 6.48178 17.2961 6.57345 17.4047 6.71345C17.6084 6.97595 17.5773 7.3476 17.3331 7.57343L14.1689 10.6018C14.0081 10.7518 13.9365 10.9718 13.9786 11.186L14.7364 15.4593C14.7895 15.8135 14.5453 16.1452 14.1874 16.2027C14.0393 16.2252 13.8877 16.2018 13.753 16.136L9.86469 14.1185C9.66935 14.0135 9.43528 14.0135 9.23994 14.1185L5.32305 16.1468C4.99552 16.3118 4.59473 16.1893 4.41623 15.8718C4.34803 15.7435 4.32446 15.5977 4.34803 15.4552L5.10582 11.1818C5.14371 10.9685 5.07214 10.7493 4.91553 10.5985L1.73451 7.57093C1.47518 7.31593 1.4735 6.90095 1.73199 6.64429C1.73283 6.64345 1.73367 6.64179 1.73451 6.64095C1.84144 6.54512 1.97279 6.48095 2.11509 6.45595L6.48162 5.83178C6.6997 5.79761 6.88746 5.66261 6.98681 5.46678L8.93514 1.58758C9.01345 1.43008 9.15237 1.30924 9.32077 1.25424C9.49001 1.19841 9.67525 1.21174 9.83438 1.29091C9.96489 1.35507 10.0718 1.45924 10.1392 1.58758Z" stroke="#168EC4" stroke-width="2" stroke-linecap="round" stroke-linejoin="round"/>
</svg>
