<svg width="16" height="16" viewBox="0 0 16 16" fill="none" xmlns="http://www.w3.org/2000/svg">
<g clip-path="url(#clip0)">
<path d="M14.6439 1.67614C12.8903 -0.0396729 10.0869 -0.0392997 8.33369 1.67699L0.980778 9.02994C-0.348776 10.3908 -0.323367 12.5719 1.03753 13.9014C2.37604 15.2091 4.51374 15.2091 5.85225 13.9014L12.5104 7.24322C13.376 6.37765 13.376 4.97424 12.5104 4.10867C11.6449 3.2431 10.2414 3.2431 9.37588 4.10867L3.00717 10.4773C2.78503 10.7073 2.79141 11.0739 3.02141 11.296C3.24579 11.5127 3.60148 11.5127 3.82586 11.296L10.1945 4.92733C10.6169 4.52275 11.2872 4.53716 11.6917 4.95949C12.0841 5.36905 12.0841 6.015 11.6917 6.42457L5.03359 13.0827C4.13413 13.9694 2.68614 13.959 1.79947 13.0595C0.92175 12.1692 0.92175 10.739 1.79947 9.84859L9.15238 2.49565C10.4621 1.18543 12.586 1.18506 13.8962 2.49476C15.2064 3.80447 15.2068 5.92836 13.8971 7.23857L6.54413 14.5915C6.30127 14.7995 6.27297 15.165 6.48096 15.4079C6.68895 15.6507 7.05445 15.679 7.29731 15.471C7.31997 15.4516 7.34107 15.4305 7.36048 15.4079L14.7134 8.05492C16.4557 6.27428 16.4246 3.41838 14.6439 1.67614Z" fill="#168EC4"/>
</g>
<defs>
<clipPath id="clip0">
<rect width="16" height="16" fill="white"/>
</clipPath>
</defs>
</svg>
