<svg width="25" height="26" viewBox="0 0 25 26" fill="none" xmlns="http://www.w3.org/2000/svg">
<path d="M14.7904 13.4303L24.5249 3.69553C25.1584 3.06232 25.1584 2.03851 24.5249 1.4053C23.8917 0.772095 22.8679 0.772095 22.2347 1.4053L12.4999 11.1401L2.76536 1.4053C2.13185 0.772095 1.10834 0.772095 0.475129 1.4053C-0.158376 2.03851 -0.158376 3.06232 0.475129 3.69553L10.2096 13.4303L0.475129 23.1651C-0.158376 23.7983 -0.158376 24.8221 0.475129 25.4554C0.790696 25.7712 1.20562 25.9299 1.62024 25.9299C2.03487 25.9299 2.4495 25.7712 2.76536 25.4554L12.4999 15.7206L22.2347 25.4554C22.5506 25.7712 22.9652 25.9299 23.3798 25.9299C23.7944 25.9299 24.2091 25.7712 24.5249 25.4554C25.1584 24.8221 25.1584 23.7983 24.5249 23.1651L14.7904 13.4303Z" fill="black" fill-opacity="0.3"/>
</svg>
