<svg width="104" height="18" viewBox="0 0 104 18" fill="none" xmlns="http://www.w3.org/2000/svg">
<path d="M8.14543 1.40616C8.53491 0.765286 9.46509 0.765285 9.85456 1.40616L11.7609 4.54303C11.9 4.77187 12.125 4.93537 12.3857 4.99691L15.9581 5.84063C16.688 6.01301 16.9754 6.89766 16.4862 7.46611L14.092 10.2485C13.9173 10.4515 13.8314 10.7161 13.8534 10.9829L14.1549 14.6412C14.2165 15.3887 13.464 15.9354 12.7722 15.6458L9.3861 14.2286C9.13908 14.1252 8.86092 14.1252 8.61391 14.2286L5.22781 15.6458C4.53602 15.9354 3.78349 15.3887 3.84509 14.6412L4.14662 10.9829C4.16861 10.7161 4.08266 10.4515 3.908 10.2485L1.51375 7.46611C1.0246 6.89766 1.31204 6.01301 2.0419 5.84063L5.61435 4.99691C5.87496 4.93537 6.09999 4.77187 6.23906 4.54303L8.14543 1.40616Z" fill="#F47920"/>
<path d="M29.8462 1.66583C30.0409 1.34539 30.506 1.3454 30.7007 1.66583L32.6071 4.80271C32.8157 5.14596 33.1532 5.3912 33.5442 5.48353L37.1166 6.32725C37.4815 6.41343 37.6253 6.85576 37.3807 7.13999L34.9864 9.9224C34.7245 10.2269 34.5955 10.6237 34.6285 11.024L34.93 14.6823C34.9608 15.056 34.5846 15.3294 34.2387 15.1846L30.8526 13.7674L30.6595 14.2286L30.8526 13.7674C30.4821 13.6123 30.0648 13.6123 29.6943 13.7674L26.3082 15.1846C25.9623 15.3294 25.586 15.056 25.6168 14.6823L25.9184 11.024C25.9514 10.6237 25.8224 10.2269 25.5604 9.9224L23.1662 7.13999C22.9216 6.85576 23.0653 6.41343 23.4303 6.32725L27.0027 5.48353C27.3936 5.3912 27.7312 5.14596 27.9398 4.80271L29.8462 1.66583Z" stroke="#F47920"/>
<path d="M51.1176 1.66583C51.3124 1.34539 51.7775 1.3454 51.9722 1.66583L53.8786 4.80271C54.0872 5.14596 54.4247 5.3912 54.8156 5.48353L58.3881 6.32725C58.753 6.41343 58.8967 6.85576 58.6522 7.13999L56.2579 9.9224C55.9959 10.2269 55.867 10.6237 55.9 11.024L56.2015 14.6823C56.2323 15.056 55.8561 15.3294 55.5102 15.1846L52.1241 13.7674L51.931 14.2286L52.1241 13.7674C51.7535 13.6123 51.3363 13.6123 50.9658 13.7674L47.5797 15.1846C47.2338 15.3294 46.8575 15.056 46.8883 14.6823L47.1898 11.024C47.2228 10.6237 47.0939 10.2269 46.8319 9.9224L44.4377 7.13999C44.1931 6.85576 44.3368 6.41343 44.7018 6.32725L48.2742 5.48353C48.6651 5.3912 49.0027 5.14596 49.2113 4.80271L51.1176 1.66583Z" stroke="#F47920"/>
<path d="M73.2094 1.66583C73.4042 1.34539 73.8693 1.3454 74.064 1.66583L75.9704 4.80271C76.179 5.14596 76.5165 5.3912 76.9074 5.48353L80.4799 6.32725C80.8448 6.41343 80.9885 6.85576 80.744 7.13999L78.3497 9.9224C78.0877 10.2269 77.9588 10.6237 77.9918 11.024L78.2933 14.6823C78.3241 15.056 77.9479 15.3294 77.602 15.1846L74.2159 13.7674L74.0228 14.2286L74.2159 13.7674C73.8453 13.6123 73.4281 13.6123 73.0576 13.7674L69.6715 15.1846C69.3256 15.3294 68.9493 15.056 68.9801 14.6823L69.2816 11.024C69.3146 10.6237 69.1857 10.2269 68.9237 9.9224L66.5295 7.13999C66.2849 6.85576 66.4286 6.41343 66.7935 6.32725L70.366 5.48353C70.7569 5.3912 71.0945 5.14596 71.3031 4.80271L73.2094 1.66583Z" stroke="#F47920"/>
<path d="M94.4809 1.66583C94.6757 1.34539 95.1407 1.3454 95.3355 1.66583L97.2419 4.80271C97.4505 5.14596 97.788 5.3912 98.1789 5.48353L101.751 6.32725C102.116 6.41343 102.26 6.85576 102.015 7.13999L99.6212 9.9224C99.3592 10.2269 99.2303 10.6237 99.2633 11.024L99.5648 14.6823C99.5956 15.056 99.2193 15.3294 98.8734 15.1846L95.4873 13.7674L95.2943 14.2286L95.4873 13.7674C95.1168 13.6123 94.6996 13.6123 94.3291 13.7674L90.943 15.1846C90.5971 15.3294 90.2208 15.056 90.2516 14.6823L90.5531 11.024C90.5861 10.6237 90.4572 10.2269 90.1952 9.9224L87.801 7.13999C87.5564 6.85576 87.7001 6.41343 88.065 6.32725L91.6375 5.48353C92.0284 5.3912 92.3659 5.14596 92.5745 4.80271L94.4809 1.66583Z" stroke="#F47920"/>
</svg>
