<svg width="104" height="18" viewBox="0 0 104 18" fill="none" xmlns="http://www.w3.org/2000/svg">
<path d="M8.14543 1.40616C8.53491 0.765286 9.46509 0.765285 9.85456 1.40616L11.7609 4.54303C11.9 4.77187 12.125 4.93537 12.3857 4.99691L15.9581 5.84063C16.688 6.01301 16.9754 6.89766 16.4862 7.46611L14.092 10.2485C13.9173 10.4515 13.8314 10.7161 13.8534 10.9829L14.1549 14.6412C14.2165 15.3887 13.464 15.9354 12.7722 15.6458L9.3861 14.2286C9.13908 14.1252 8.86092 14.1252 8.61391 14.2286L5.22781 15.6458C4.53602 15.9354 3.78349 15.3887 3.84509 14.6412L4.14662 10.9829C4.16861 10.7161 4.08266 10.4515 3.908 10.2485L1.51375 7.46611C1.0246 6.89766 1.31204 6.01301 2.0419 5.84063L5.61435 4.99691C5.87496 4.93537 6.09999 4.77187 6.23906 4.54303L8.14543 1.40616Z" fill="#F47920"/>
<path d="M29.4189 1.40616C29.8084 0.765286 30.7385 0.765285 31.128 1.40616L33.0344 4.54303C33.1734 4.77187 33.3985 4.93537 33.6591 4.99691L37.2315 5.84063C37.9614 6.01301 38.2488 6.89766 37.7597 7.46611L35.3654 10.2485C35.1908 10.4515 35.1048 10.7161 35.1268 10.9829L35.4283 14.6412C35.4899 15.3887 34.7374 15.9354 34.0456 15.6458L30.6595 14.2286C30.4125 14.1252 30.1344 14.1252 29.8873 14.2286L26.5012 15.6458C25.8095 15.9354 25.0569 15.3887 25.1185 14.6412L25.4201 10.9829C25.442 10.7161 25.3561 10.4515 25.1814 10.2485L22.7872 7.46611C22.298 6.89766 22.5855 6.01301 23.3153 5.84063L26.8878 4.99691C27.1484 4.93537 27.3734 4.77187 27.5125 4.54303L29.4189 1.40616Z" fill="#F47920"/>
<path d="M50.6904 1.40616C51.0798 0.765286 52.01 0.765285 52.3995 1.40616L54.3059 4.54303C54.4449 4.77187 54.67 4.93537 54.9306 4.99691L58.503 5.84063C59.2329 6.01301 59.5203 6.89766 59.0312 7.46611L56.6369 10.2485C56.4623 10.4515 56.3763 10.7161 56.3983 10.9829L56.6998 14.6412C56.7614 15.3887 56.0089 15.9354 55.3171 15.6458L51.931 14.2286C51.684 14.1252 51.4058 14.1252 51.1588 14.2286L47.7727 15.6458C47.0809 15.9354 46.3284 15.3887 46.39 14.6412L46.6915 10.9829C46.7135 10.7161 46.6276 10.4515 46.4529 10.2485L44.0587 7.46611C43.5695 6.89766 43.857 6.01301 44.5868 5.84063L48.1593 4.99691C48.4199 4.93537 48.6449 4.77187 48.784 4.54303L50.6904 1.40616Z" fill="#F47920"/>
<path d="M72.7822 1.40616C73.1716 0.765286 74.1018 0.765285 74.4913 1.40616L76.3977 4.54303C76.5367 4.77187 76.7618 4.93537 77.0224 4.99691L80.5948 5.84063C81.3247 6.01301 81.6121 6.89766 81.123 7.46611L78.7287 10.2485C78.5541 10.4515 78.4681 10.7161 78.4901 10.9829L78.7916 14.6412C78.8532 15.3887 78.1007 15.9354 77.4089 15.6458L74.0228 14.2286C73.7758 14.1252 73.4976 14.1252 73.2506 14.2286L69.8645 15.6458C69.1727 15.9354 68.4202 15.3887 68.4818 14.6412L68.7833 10.9829C68.8053 10.7161 68.7194 10.4515 68.5447 10.2485L66.1505 7.46611C65.6613 6.89766 65.9488 6.01301 66.6786 5.84063L70.2511 4.99691C70.5117 4.93537 70.7367 4.77187 70.8758 4.54303L72.7822 1.40616Z" fill="#F47920"/>
<path d="M94.4809 1.66583C94.6757 1.34539 95.1407 1.3454 95.3355 1.66583L97.2419 4.80271C97.4505 5.14596 97.788 5.3912 98.1789 5.48353L101.751 6.32725C102.116 6.41343 102.26 6.85576 102.015 7.13999L99.6212 9.9224C99.3592 10.2269 99.2303 10.6237 99.2633 11.024L99.5648 14.6823C99.5956 15.056 99.2193 15.3294 98.8734 15.1846L95.4873 13.7674L95.2943 14.2286L95.4873 13.7674C95.1168 13.6123 94.6996 13.6123 94.3291 13.7674L90.943 15.1846C90.5971 15.3294 90.2208 15.056 90.2516 14.6823L90.5531 11.024C90.5861 10.6237 90.4572 10.2269 90.1952 9.9224L87.801 7.13999C87.5564 6.85576 87.7001 6.41343 88.065 6.32725L91.6375 5.48353C92.0284 5.3912 92.3659 5.14596 92.5745 4.80271L94.4809 1.66583Z" stroke="#F47920"/>
</svg>
