<svg width="237" height="234" viewBox="0 0 237 234" fill="none" xmlns="http://www.w3.org/2000/svg">
<path d="M24.6652 39.2899C10.5718 57.6895 5.02585 81.7657 2.12236 105.271C-0.324403 124.992 -1.12368 145.463 4.74855 164.352C13.4264 192.261 36.2465 213.662 62.1985 224.086C88.1341 234.509 116.859 234.949 144.279 230.415C192.986 222.373 233.455 176.537 236.098 124.111C239.996 47.038 168.094 -7.0028 99.8786 1.70767C71.6593 5.27994 42.5918 15.8988 24.6652 39.2899Z" fill="#2EA6DC"/>
<path d="M185.826 38.2622C176.724 18.0194 145.079 9.89615 125.929 12.9138C122.928 13.3869 124.102 17.6932 126.582 18.0357C137.853 19.5364 147.819 21.6406 158.112 26.9582C166.529 31.3134 172.646 39.0289 180.883 43.5147C184.227 45.3416 187.392 41.7366 185.826 38.2622Z" fill="#51C5FA"/>
<path d="M193.591 48.7507C191.16 48.4734 190.051 52.0619 191.666 53.6931C194.977 57.037 198.712 59.5653 201.681 63.3496C204.846 67.3623 206.575 72.3212 209.755 76.3828C211.794 78.9764 215.285 76.6437 215.481 73.8707C216.264 62.4688 203.9 49.9578 193.591 48.7507Z" fill="#51C5FA"/>
<path d="M144.262 230.398C176.51 225.064 205.154 203.158 221.596 173.747C200.048 189.342 174.781 199.047 148.748 200.336C107.3 202.391 64.8077 182.05 41.0415 146.034C19.5426 113.459 15.0895 68.7162 30.4062 32.6836C28.3999 34.7715 26.4751 36.9573 24.6808 39.2898C10.5875 57.6895 5.04147 81.7656 2.13798 105.271C-0.308778 124.992 -1.10805 145.463 4.76417 164.352C13.442 192.261 36.2621 213.662 62.2141 224.086C88.1335 234.492 116.858 234.933 144.262 230.398Z" fill="#168EC4"/>
<path d="M67.1722 76.2849C49.4902 77.7529 53.5192 103.281 70.2714 104.26C87.0399 105.238 90.7589 74.3275 67.1722 76.2849Z" fill="#262626"/>
<path d="M67.0098 81.2437C63.3723 77.6062 58.3482 84.2777 62.7687 86.7244C66.1942 88.6329 69.897 84.1309 67.0098 81.2437Z" fill="white"/>
<path d="M155.598 76.2849C137.916 77.7529 141.945 103.281 158.697 104.26C175.466 105.238 179.185 74.3275 155.598 76.2849Z" fill="#262626"/>
<path d="M156.006 81.2437C152.368 77.6062 147.344 84.2777 151.765 86.7244C155.19 88.6329 158.893 84.1309 156.006 81.2437Z" fill="white"/>
<path d="M144.102 152.624C137.855 141.336 127.758 134.909 114.872 136.883C104.351 138.482 92.8834 145.284 89.882 155.935C89.5232 157.224 91.3501 158.496 92.2635 157.322C97.4017 150.683 102.899 146.605 110.94 143.881C124.936 139.134 131.575 146.621 141.46 154.647C142.895 155.805 145.065 154.369 144.102 152.624Z" fill="#262626"/>
</svg>
