<svg width="143" height="86" viewBox="0 0 143 86" fill="none" xmlns="http://www.w3.org/2000/svg">
<path d="M69.7966 44.4458C69.9796 44.0386 71.322 45.3856 71.6271 46.3253C71.9322 47.2651 70.4068 50.0843 70.4068 50.0843C70.4068 50.0843 68.5763 54.7831 68.5763 55.7229C68.5763 55.7229 68.8813 56.0361 69.1864 55.4096C69.4915 54.7831 77.7288 42.5663 79.8644 41.3133C79.8644 41.3133 80.1695 41 80.7796 41C81.3899 41 82 41.6265 82 41.6265C82 41.6265 80.9827 42.3158 80.3525 43.1928C77.6001 47.0236 71.2209 56.9544 69.9796 58.2289C68.4542 59.7952 66.1356 58.5422 66.1356 58.2289C66.1356 57.9156 65.8305 56.9759 66.1356 55.4096C66.4407 53.8433 67.9661 48.2049 69.7966 44.4458Z" fill="white"/>
<path d="M43.7692 50.6391C43.7692 50.6391 44.0865 49.7347 44.7209 49.4332C45.3555 49.1317 46.3072 49.1317 46.6244 49.7347C46.9417 50.3376 45.0382 55.1616 45.0382 55.1616C45.0382 55.1616 44.4038 56.9705 45.0382 57.5735C45.0382 57.5735 52.3347 52.4481 54.2381 50.6391L54.8727 49.4332C54.8727 49.4332 54.8727 49.1317 55.8243 49.1317C56.776 49.1317 57.7277 49.4332 57.7277 49.7347V50.3376C57.7277 50.3376 58.045 50.3376 58.3623 50.0361C58.6795 49.7347 60.9002 46.7197 63.1209 47.0212C66.2615 47.6242 64.5166 50.6391 64.5166 50.6391C64.5166 50.6391 62.4546 56.066 62.4546 56.3675C62.4546 56.669 63.1209 57.875 64.0726 56.9705C64.0726 56.9705 64.3898 56.669 64.3898 56.9705C64.3898 57.272 63.7553 58.1765 63.7553 58.1765C63.7553 58.1765 60.9002 59.684 60.5829 56.669C60.2657 53.6541 62.1692 49.4332 62.1692 49.4332C62.1692 49.4332 62.3277 48.6794 61.6933 48.9809C61.0588 49.2824 55.983 54.1063 55.0313 57.7243C55.0313 57.7243 54.0795 60.1362 51.5417 58.3273C51.5417 58.3273 51.2244 57.4228 51.5417 56.5183C51.8588 55.6138 53.8891 52.4481 53.8891 52.4481C53.8891 52.4481 52.4934 53.5033 52.1761 53.8048C51.8588 54.1063 46.4658 58.9302 45.5141 58.9302C44.5624 58.9302 41.7072 58.6288 42.0245 56.5183C42.3417 54.4078 43.7692 50.6391 43.7692 50.6391Z" fill="white"/>
<path d="M47.009 47C47.009 47 49.4209 44.125 49.7704 43.8223C50.1199 43.5197 50.1199 42.9145 49.4209 42.6118C48.7218 42.3092 48.0227 41.4012 47.3235 42.6118C46.6244 43.8223 44.9116 47 47.009 47Z" fill="white"/>
<path fill-rule="evenodd" clip-rule="evenodd" d="M81.0729 53.6727C79.8007 54.586 78.3694 53.5205 78.3694 53.5205C78.3694 53.5205 75.6659 57.6301 78.5284 57.6301C81.391 57.6301 92.6827 49.8676 92.6827 49.8676L93 51.0852C85.0487 58.3911 79.3235 59 79.3235 59C79.3235 59 75.1887 58.6956 76.143 54.7382C77.0971 50.7808 81.2319 47.4322 82.5042 47.1278C83.7764 46.8234 84.6988 47.0974 85.2078 47.5845C86.0029 48.3455 85.6848 48.9543 85.6848 48.9543C85.4154 50.7594 83.206 52.2368 81.7633 53.2016C81.5029 53.3757 81.2675 53.5331 81.0729 53.6727ZM83.6173 48.1932C82.9811 48.1932 79.1644 52.1506 79.1644 52.1506C79.8356 52.7929 81.4509 51.1763 82.5714 50.0547C83.0441 49.5818 83.4286 49.1968 83.6173 49.1065C84.2535 48.8021 83.6173 48.1932 83.6173 48.1932Z" fill="white"/>
<path fill-rule="evenodd" clip-rule="evenodd" d="M93.4618 54.0507C92.8369 53.7368 93.7747 52.4814 93.7747 52.4814C94.869 51.3828 95.1819 49.1856 95.1819 49.1856C91.7418 51.0689 91.4298 54.5216 92.0547 54.8354C92.6805 55.1493 94.2441 57.6602 94.2441 57.6602C94.5561 57.6602 103 52.3244 103 52.3244L102.374 54.5215C101.436 55.4631 95.1819 59.5436 95.1819 59.5436C95.8077 62.0545 94.869 64.8794 92.3676 68.6459C89.8658 72.4124 87.0514 70.5292 87.0514 70.5292L86.426 69.9014H85.8006C85.8006 69.9014 84.5497 69.5875 85.1751 66.135C85.8006 62.6823 93.0556 58.0997 93.0556 58.0997C92.686 57.215 92.1288 56.7651 91.5844 56.3249C90.9307 55.7969 90.2951 55.2833 90.0222 54.0507C89.5403 51.8741 92.0291 49.3248 93.3392 47.9822C93.7299 47.5824 94.0154 47.2895 94.0877 47.1455C94.3996 46.5177 96.902 48.0871 97.2149 48.7148C97.5269 49.3426 95.9633 51.5397 95.9633 51.5397C95.9633 51.5397 94.0877 54.3646 93.4618 54.0507ZM87.6769 68.646C87.6769 68.646 86.1133 66.135 93.3054 60.7991C93.3054 60.7991 90.804 69.2737 87.6769 68.646Z" fill="white"/>
<path fill-rule="evenodd" clip-rule="evenodd" d="M106.978 39.9005C108.346 37.1161 109.369 35.2156 109.369 35.2156C110.453 34.4286 112.313 36.0025 112.003 36.6321C111.693 37.2617 111.073 37.2617 111.073 37.2617C110.864 37.4746 110.465 38.2 109.973 39.1956C113.167 38.4816 116.492 37.8661 119.438 37.5764C129.042 36.6321 134 38.5207 134 39.1503C134 39.7799 133.071 39.7799 133.071 39.7799C133.071 39.7799 134.31 38.8355 122.847 39.1503C118.262 39.2762 113.331 40.2076 108.984 41.2802C107.376 44.7673 105.497 49.2233 105.497 49.2233C101.159 57.4075 102.399 61.1848 102.399 61.1848C103.328 61.4996 110.763 52.0562 111.383 51.1119C112.003 50.1676 114.482 50.1676 114.482 50.1676C109.214 57.4075 105.032 61.9718 105.032 61.9718C105.032 61.9718 99.7652 65.7491 100.074 58.824C100.255 54.8059 103.355 47.5026 105.926 42.0791C103.455 42.7584 101.294 43.4297 99.6592 43.9375C97.9595 44.4652 96.8291 44.8163 96.5119 44.8163C95.2727 44.8163 93.7544 42.8332 94.0336 42.9276C94.9627 43.2424 96.2019 42.9276 96.2019 42.9276C96.2019 42.9276 101.038 41.3644 106.978 39.9005Z" fill="white"/>
<path opacity="0.8" fill-rule="evenodd" clip-rule="evenodd" d="M26.6206 54.1671C37.1143 48.4301 60.301 32.4212 69.0991 14.2814C71.2987 7.0419 66.3497 1.98789 57.1392 7.0419C48.4327 11.7771 29.4525 27.2306 23.1838 51.162C22.94 51.3073 22.5674 51.5367 22.0935 51.8286C18.5597 54.0042 9.39405 59.647 6 59.7675C6.68735 61.27 8.337 61.6798 11.4988 60.7237C14.6607 59.7675 20.7094 57.1722 23.1838 55.9428V55.988C23.1828 58.14 23.1781 68.4198 41.4675 74.9295C59.8885 81.486 93.4311 72.4708 109.791 47.8838C110.203 47.3373 110.286 46.5724 107.316 47.8838C103.605 49.5228 90.5445 55.9428 79.8218 61.8164C73.6357 65.3223 59.0088 72.3342 49.9907 72.3342C38.718 72.3342 30.0526 68.8739 27.033 61.5432C26.6206 60.0406 26.6206 58.4016 26.6206 54.1671ZM27.8579 48.2935C29.5075 42.9208 35.2813 29.9078 45.1792 20.838C57.5515 9.50065 63.3254 7.86148 67.1745 8.27126C67.1636 8.29837 67.1525 8.326 67.1412 8.35417C65.726 11.8735 60.9981 23.6306 27.8579 48.2935Z" fill="white"/>
</svg>
