<svg width="71" height="71" viewBox="0 0 71 71" fill="none" xmlns="http://www.w3.org/2000/svg">
<g clip-path="url(#clip0)">
<path d="M67.5964 39.1719C67.9507 38.5052 67.6973 37.6775 67.0305 37.3231C59.3698 33.2522 50.0247 34.2285 43.3862 39.6837L41.1773 37.4747L44.7848 33.8671C45.3187 33.3333 45.3187 32.4676 44.7848 31.9335C44.2508 31.3996 43.3854 31.3996 42.8512 31.9335L39.2437 35.5411L30.4416 26.7391C32.4437 24.0541 33.7033 20.9002 34.1005 17.542C34.558 13.6707 33.8298 9.79831 31.9939 6.34385C31.6397 5.67707 30.8117 5.42387 30.1451 5.77811C29.4783 6.13248 29.2251 6.96017 29.5793 7.62695C32.524 13.1681 32.0631 19.7478 28.4846 24.7821L22.6841 18.9815C21.8702 18.1676 20.7133 17.83 19.5892 18.0775C18.4651 18.3254 17.5575 19.1185 17.1613 20.1993L0.506327 65.6351C0.0514654 66.8761 0.349374 68.2277 1.28412 69.1623C1.92956 69.8078 2.77352 70.1496 3.64292 70.1496C4.03256 70.1496 4.42727 70.0808 4.81131 69.9401L50.2469 53.285C51.3276 52.8889 52.1207 51.9812 52.3687 50.8572C52.6165 49.7332 52.2786 48.5762 51.4648 47.7624L45.3316 41.629C51.1083 37.0197 59.1448 36.2291 65.7476 39.7378C66.4142 40.0922 67.2419 39.8387 67.5964 39.1719ZM22.0728 60.7003L9.74615 48.3736L13.1616 39.0561L31.3903 57.2848L22.0728 60.7003ZM15.3918 63.1493L7.29712 55.0546L8.70887 51.2034L19.243 61.7376L15.3918 63.1493ZM3.87014 67.3727C3.54612 67.4915 3.32231 67.3334 3.21745 67.2288C3.11272 67.1241 2.95481 66.9002 3.07362 66.5763L6.2597 57.8844L12.5619 64.1866L3.87014 67.3727ZM49.6985 50.2684C49.6712 50.3924 49.5838 50.6157 49.306 50.7175L40.901 53.7985L33.1248 46.0222C32.5909 45.4882 31.7252 45.4883 31.1914 46.0221C30.6575 46.556 30.6573 47.4217 31.1912 47.9555L38.0712 54.8356L34.2199 56.2474L14.1989 36.2263L15.6107 32.3751L22.4908 39.2551C22.7576 39.5221 23.1076 39.6555 23.4575 39.6555C23.8074 39.6555 24.1573 39.5219 24.4242 39.2551C24.9581 38.7212 24.9581 37.8555 24.4241 37.3216L16.648 29.5455L19.7289 21.1404C19.8308 20.8626 20.054 20.7753 20.1782 20.7478C20.2159 20.7395 20.2644 20.7323 20.3195 20.7323C20.4452 20.7323 20.6053 20.7695 20.7507 20.9151L49.5313 49.6957C49.7405 49.905 49.7258 50.1444 49.6985 50.2684Z" fill="#168EC4"/>
<path d="M41.5313 11.0601C42.2863 11.0601 42.8984 10.448 42.8984 9.6929C42.8984 8.54788 43.83 7.61642 44.9751 7.61642C47.6277 7.61642 49.7859 5.45831 49.7859 2.80556C49.7859 2.05046 49.1737 1.43837 48.4187 1.43837C47.6638 1.43837 47.0515 2.05046 47.0515 2.80556C47.0515 3.95058 46.1199 4.88204 44.9751 4.88204C42.3223 4.88204 40.1641 7.04015 40.1641 9.6929C40.1641 10.448 40.7763 11.0601 41.5313 11.0601Z" fill="#168EC4"/>
<path d="M53.6602 23.965C56.3999 23.965 58.6288 21.736 58.6288 18.9965C58.6288 17.7646 59.6309 16.7623 60.8629 16.7623C61.6179 16.7623 62.2301 16.1503 62.2301 15.3952C62.2301 14.6401 61.6179 14.028 60.8629 14.028C58.1233 14.028 55.8944 16.2569 55.8944 18.9965C55.8944 20.2283 54.8921 21.2306 53.6602 21.2306C52.9052 21.2306 52.293 21.8427 52.293 22.5978C52.293 23.3529 52.9052 23.965 53.6602 23.965Z" fill="#168EC4"/>
<path d="M61.5469 26.6024C61.5469 29.0148 63.5095 30.9774 65.9219 30.9774C68.3343 30.9774 70.2969 29.0148 70.2969 26.6024C70.2969 24.19 68.3343 22.2274 65.9219 22.2274C63.5095 22.2274 61.5469 24.19 61.5469 26.6024ZM65.9219 24.9618C66.8265 24.9618 67.5625 25.6977 67.5625 26.6024C67.5625 27.5071 66.8265 28.243 65.9219 28.243C65.0172 28.243 64.2812 27.5071 64.2812 26.6024C64.2812 25.6977 65.0172 24.9618 65.9219 24.9618Z" fill="#168EC4"/>
<path d="M43.3789 23.3717C45.7913 23.3717 47.7539 21.4091 47.7539 18.9967C47.7539 16.5843 45.7913 14.6217 43.3789 14.6217C40.9665 14.6217 39.0039 16.5843 39.0039 18.9967C39.0039 21.4091 40.9666 23.3717 43.3789 23.3717ZM43.3789 17.356C44.2836 17.356 45.0195 18.092 45.0195 18.9967C45.0195 19.9013 44.2836 20.6373 43.3789 20.6373C42.4742 20.6373 41.7383 19.9013 41.7383 18.9967C41.7383 18.092 42.4742 17.356 43.3789 17.356Z" fill="#168EC4"/>
<path d="M17.7969 8.89941C20.2093 8.89941 22.1719 6.93682 22.1719 4.52441C22.1719 2.11201 20.2093 0.149414 17.7969 0.149414C15.3845 0.149414 13.4219 2.11201 13.4219 4.52441C13.4219 6.93682 15.3845 8.89941 17.7969 8.89941ZM17.7969 2.88379C18.7015 2.88379 19.4375 3.61975 19.4375 4.52441C19.4375 5.42908 18.7015 6.16504 17.7969 6.16504C16.8922 6.16504 16.1562 5.42908 16.1562 4.52441C16.1562 3.61975 16.8922 2.88379 17.7969 2.88379Z" fill="#168EC4"/>
<path d="M62.1621 48.1454C61.6284 47.6115 60.763 47.6115 60.2285 48.1453C59.6947 48.6791 59.6947 49.5448 60.2285 50.0787L61.5175 51.3677C61.7845 51.6347 62.1344 51.7682 62.4843 51.7682C62.8341 51.7682 63.184 51.6346 63.451 51.3677C63.9849 50.8338 63.9849 49.9681 63.451 49.4342L62.1621 48.1454Z" fill="#168EC4"/>
<path d="M68.6075 54.5903C68.0734 54.0564 67.208 54.0564 66.6739 54.5903C66.14 55.1242 66.14 55.9899 66.6739 56.5239L67.9628 57.8129C68.2298 58.0799 68.5797 58.2134 68.9296 58.2134C69.2794 58.2134 69.6293 58.0799 69.8963 57.8129C70.4302 57.279 70.4302 56.4133 69.8963 55.8793L68.6075 54.5903Z" fill="#168EC4"/>
<path d="M67.9628 48.1455L66.6739 49.4345C66.14 49.9684 66.14 50.8341 66.6739 51.3679C66.9409 51.635 67.2907 51.7684 67.6406 51.7684C67.9904 51.7684 68.3404 51.6348 68.6073 51.3679L69.8963 50.079C70.4302 49.5451 70.4302 48.6794 69.8963 48.1455C69.3624 47.6115 68.4967 47.6116 67.9628 48.1455Z" fill="#168EC4"/>
<path d="M61.5175 54.5903L60.2285 55.8793C59.6947 56.4132 59.6947 57.2789 60.2285 57.8129C60.4955 58.0799 60.8454 58.2134 61.1953 58.2134C61.5453 58.2134 61.895 58.0799 62.162 57.8129L63.451 56.5239C63.9849 55.9901 63.9849 55.1244 63.451 54.5903C62.917 54.0564 62.0515 54.0564 61.5175 54.5903Z" fill="#168EC4"/>
<path d="M67.6407 4.17277C67.9906 4.17277 68.3406 4.03933 68.6075 3.77232L69.8964 2.48334C70.4303 1.94945 70.4303 1.08375 69.8964 0.54986C69.3624 0.0159729 68.4967 0.0159729 67.9628 0.54986L66.6739 1.83884C66.14 2.37273 66.14 3.23843 66.6739 3.77232C66.941 4.03933 67.2907 4.17277 67.6407 4.17277Z" fill="#168EC4"/>
<path d="M61.1954 10.6176C61.5454 10.6176 61.8951 10.4841 62.1621 10.2171L63.4511 8.92814C63.985 8.39426 63.985 7.52855 63.4511 6.99453C62.9171 6.46064 62.0517 6.46064 61.5175 6.99453L60.2285 8.28352C59.6947 8.8174 59.6947 9.6831 60.2285 10.2171C60.4957 10.4841 60.8456 10.6176 61.1954 10.6176Z" fill="#168EC4"/>
<path d="M68.6075 6.9947C68.0734 6.46081 67.208 6.46081 66.6739 6.9947C66.14 7.52859 66.14 8.39429 66.6739 8.92831L67.9628 10.2173C68.2298 10.4843 68.5797 10.6177 68.9296 10.6177C69.2794 10.6177 69.6293 10.4843 69.8963 10.2173C70.4302 9.68341 70.4302 8.81771 69.8963 8.28368L68.6075 6.9947Z" fill="#168EC4"/>
<path d="M61.5177 3.77232C61.7847 4.03933 62.1345 4.17277 62.4844 4.17277C62.8343 4.17277 63.1841 4.03933 63.4511 3.77232C63.985 3.23843 63.985 2.37273 63.4511 1.83884L62.1621 0.54986C61.6284 0.0159729 60.763 0.0159729 60.2285 0.54986C59.6947 1.08375 59.6947 1.94945 60.2285 2.48334L61.5177 3.77232Z" fill="#168EC4"/>
<path d="M27.8086 41.2715C27.449 41.2715 27.0963 41.4178 26.842 41.6721C26.5877 41.9264 26.4414 42.2791 26.4414 42.6387C26.4414 42.9983 26.5877 43.351 26.842 43.6053C27.0963 43.8596 27.449 44.0059 27.8086 44.0059C28.1682 44.0059 28.5209 43.8596 28.7752 43.6053C29.0295 43.351 29.1758 42.9983 29.1758 42.6387C29.1758 42.2791 29.0295 41.9264 28.7752 41.6721C28.5209 41.4178 28.1682 41.2715 27.8086 41.2715Z" fill="#168EC4"/>
<path d="M47.7549 27.0304L46.7637 28.0216C46.2298 28.5555 46.2298 29.4212 46.7637 29.9552C47.0307 30.2222 47.3806 30.3556 47.7304 30.3556C48.0803 30.3556 48.4302 30.2222 48.6972 29.9552L49.6884 28.964C50.2223 28.4301 50.2223 27.5644 49.6884 27.0304C49.1543 26.4965 48.2889 26.4965 47.7549 27.0304Z" fill="#168EC4"/>
</g>
<defs>
<clipPath id="clip0">
<rect width="70" height="70" fill="white" transform="translate(0.296875 0.149414)"/>
</clipPath>
</defs>
</svg>
