<svg width="187" height="112" viewBox="0 0 187 112" fill="none" xmlns="http://www.w3.org/2000/svg">
<path d="M91.4581 58.2315C91.7036 57.7071 93.505 59.4417 93.9144 60.652C94.3239 61.8622 92.2769 65.4928 92.2769 65.4928C92.2769 65.4928 89.8204 71.544 89.8204 72.7543C89.8204 72.7543 90.2298 73.1577 90.6392 72.3508C91.0486 71.544 102.102 55.811 104.968 54.1974C104.968 54.1974 105.378 53.7939 106.196 53.7939C107.015 53.7939 107.834 54.6008 107.834 54.6008C107.834 54.6008 106.469 55.4885 105.623 56.6178C101.93 61.5512 93.3693 74.3402 91.7036 75.9816C89.6567 77.9986 86.5452 76.385 86.5452 75.9816C86.5452 75.5781 86.1358 74.3679 86.5452 72.3508C86.9546 70.3338 89.0017 63.0725 91.4581 58.2315Z" fill="black"/>
<path d="M56.9836 65.8861C56.9836 65.8861 57.3939 64.6738 58.2145 64.2697C59.0352 63.8656 60.2661 63.8656 60.6763 64.6738C61.0866 65.4819 58.6248 71.9479 58.6248 71.9479C58.6248 71.9479 57.8042 74.3725 58.6248 75.1808C58.6248 75.1808 68.0618 68.3108 70.5236 65.8861L71.3443 64.2697C71.3443 64.2697 71.3443 63.8656 72.5751 63.8656C73.806 63.8656 75.0369 64.2697 75.0369 64.6738V65.4819C75.0369 65.4819 75.4473 65.4819 75.8576 65.0778C76.2678 64.6738 79.14 60.6326 82.0122 61.0367C86.0741 61.8449 83.8174 65.8861 83.8174 65.8861C83.8174 65.8861 81.1505 73.1601 81.1505 73.5643C81.1505 73.9684 82.0122 75.5849 83.2431 74.3725C83.2431 74.3725 83.6533 73.9684 83.6533 74.3725C83.6533 74.7766 82.8327 75.989 82.8327 75.989C82.8327 75.989 79.14 78.0096 78.7297 73.9684C78.3194 69.9273 80.7813 64.2697 80.7813 64.2697C80.7813 64.2697 80.9864 63.2593 80.1658 63.6634C79.3451 64.0676 72.7803 70.5334 71.5494 75.3829C71.5494 75.3829 70.3185 78.6157 67.0361 76.1911C67.0361 76.1911 66.6257 74.9788 67.0361 73.7664C67.4463 72.554 70.0722 68.3108 70.0722 68.3108C70.0722 68.3108 68.267 69.7252 67.8567 70.1293C67.4463 70.5334 60.4712 76.9993 59.2403 76.9993C58.0094 76.9993 54.3166 76.5952 54.727 73.7664C55.1372 70.9375 56.9836 65.8861 56.9836 65.8861Z" fill="black"/>
<path d="M61.6331 60.89C61.6331 60.89 64.4538 57.0818 64.8626 56.6809C65.2714 56.2801 65.2714 55.4783 64.4538 55.0774C63.6362 54.6766 62.8187 53.4739 62.001 55.0774C61.1834 56.6809 59.1803 60.89 61.6331 60.89Z" fill="black"/>
<path fill-rule="evenodd" clip-rule="evenodd" d="M105.964 70.3457C104.325 71.5584 102.48 70.1436 102.48 70.1436C102.48 70.1436 98.9951 75.6006 102.685 75.6006C106.374 75.6006 120.929 65.2929 120.929 65.2929L121.338 66.9097C111.089 76.6112 103.71 77.4197 103.71 77.4197C103.71 77.4197 98.3801 77.0154 99.6101 71.7605C100.84 66.5056 106.169 62.0591 107.809 61.6549C109.449 61.2506 110.638 61.6145 111.294 62.2612C112.319 63.2718 111.909 64.0802 111.909 64.0802C111.562 66.4771 108.714 68.439 106.854 69.72C106.519 69.9513 106.215 70.1602 105.964 70.3457ZM109.244 63.0696C108.424 63.0696 103.505 68.3245 103.505 68.3245C104.37 69.1774 106.452 67.0307 107.896 65.5414C108.505 64.9134 109.001 64.4022 109.244 64.2823C110.064 63.8781 109.244 63.0696 109.244 63.0696Z" fill="black"/>
<path fill-rule="evenodd" clip-rule="evenodd" d="M122.82 69.7568C122.001 69.3526 123.23 67.7358 123.23 67.7358C124.665 66.3209 125.075 63.4913 125.075 63.4913C120.565 65.9167 120.156 70.3632 120.975 70.7674C121.796 71.1717 123.846 74.4054 123.846 74.4054C124.255 74.4054 135.325 67.5336 135.325 67.5336L134.504 70.3632C133.275 71.5758 125.075 76.8308 125.075 76.8308C125.896 80.0645 124.665 83.7026 121.386 88.5532C118.106 93.404 114.416 90.9786 114.416 90.9786L113.596 90.1702H112.776C112.776 90.1702 111.136 89.7659 111.956 85.3195C112.776 80.873 122.288 74.9713 122.288 74.9713C121.803 73.832 121.072 73.2525 120.359 72.6856C119.502 72.0057 118.668 71.3442 118.311 69.7568C117.679 66.9536 120.942 63.6705 122.659 61.9416C123.172 61.4266 123.546 61.0495 123.641 60.8639C124.05 60.0554 127.33 62.0766 127.74 62.885C128.149 63.6935 126.1 66.523 126.1 66.523C126.1 66.523 123.641 70.1611 122.82 69.7568ZM115.236 88.5533C115.236 88.5533 113.186 85.3195 122.615 78.4478C122.615 78.4478 119.336 89.3618 115.236 88.5533Z" fill="black"/>
<path fill-rule="evenodd" clip-rule="evenodd" d="M139.97 52.4177C141.78 48.8421 143.134 46.4015 143.134 46.4015C144.569 45.3909 147.029 47.412 146.619 48.2204C146.208 49.0289 145.389 49.0289 145.389 49.0289C145.112 49.3024 144.584 50.2338 143.933 51.5124C148.16 50.5955 152.56 49.8051 156.458 49.4332C169.167 48.2204 175.727 50.6458 175.727 51.4542C175.727 52.2627 174.497 52.2627 174.497 52.2627C174.497 52.2627 176.137 51.05 160.968 51.4542C154.901 51.6159 148.376 52.812 142.624 54.1893C140.497 58.6673 138.01 64.3895 138.01 64.3895C132.27 74.8993 133.91 79.7499 133.91 79.7499C135.14 80.1542 144.979 68.0274 145.799 66.8148C146.619 65.6021 149.899 65.6021 149.899 65.6021C142.929 74.8993 137.395 80.7605 137.395 80.7605C137.395 80.7605 130.426 85.6112 130.835 76.7182C131.073 71.5584 135.176 62.1799 138.577 55.2153C135.309 56.0875 132.449 56.9496 130.285 57.6017C128.036 58.2794 126.541 58.7302 126.121 58.7302C124.481 58.7302 122.472 56.1837 122.841 56.3049C124.071 56.7091 125.71 56.3049 125.71 56.3049C125.71 56.3049 132.11 54.2975 139.97 52.4177Z" fill="black"/>
<path opacity="0.9" fill-rule="evenodd" clip-rule="evenodd" d="M34.9582 70.2736C48.7189 62.8084 79.1242 41.9768 90.6613 18.3725C93.5457 8.95216 87.056 2.37564 74.978 8.95214C63.561 15.1139 38.6718 35.2227 30.4515 66.3633C30.1319 66.5524 29.6432 66.8509 29.0217 67.2306C24.3878 70.0616 12.3687 77.4043 7.91797 77.5611C8.81931 79.5162 10.9825 80.0495 15.1287 78.8053C19.2749 77.5611 27.2068 74.184 30.4515 72.5843V72.6431C30.4502 75.4433 30.444 88.8199 54.4273 97.2906C78.5833 105.822 122.569 94.0913 144.021 62.0975C144.562 61.3864 144.67 60.3911 140.776 62.0975C135.909 64.2303 118.783 72.5843 104.722 80.2273C96.6103 84.7893 77.4297 93.9135 65.604 93.9135C50.8219 93.9135 39.4587 89.4108 35.4991 79.8717C34.9582 77.9165 34.9582 75.7837 34.9582 70.2736ZM36.5808 62.6306C38.7439 55.6394 46.3152 38.7064 59.2946 26.9043C75.5188 12.1516 83.0902 10.0186 88.1376 10.5519C88.1233 10.5871 88.1087 10.6231 88.0939 10.6597C86.2381 15.2392 80.0383 30.5382 36.5808 62.6306Z" fill="#1F2187"/>
</svg>
