<svg width="69" height="70" viewBox="0 0 69 70" fill="none" xmlns="http://www.w3.org/2000/svg">
<path d="M23.8453 31.2111C21.5287 31.2111 19.6898 33.474 19.6898 36.1942C19.6898 38.9143 21.5287 41.1773 23.8453 41.1773C26.162 41.1773 28.0008 38.9144 28.0008 36.1942C28.0008 33.4739 26.162 31.2111 23.8453 31.2111ZM23.8453 38.8854C23.3629 38.8854 22.9002 38.5974 22.5516 38.1056C22.204 37.6151 21.9818 36.9356 21.9818 36.1942C21.9818 35.4527 22.204 34.7733 22.5516 34.2828C22.9001 33.7911 23.3629 33.503 23.8453 33.503C24.3278 33.503 24.7905 33.7911 25.139 34.2828C25.4867 34.7733 25.7089 35.4528 25.7089 36.1942C25.7089 36.9357 25.4867 37.6152 25.139 38.1057C24.7905 38.5974 24.3278 38.8854 23.8453 38.8854Z" fill="#F47920" stroke="#F47920" stroke-width="0.3"/>
<path d="M44.736 31.2112C42.4193 31.2112 40.5805 33.4741 40.5805 36.1943C40.5805 38.9144 42.4193 41.1775 44.736 41.1775C47.0526 41.1775 48.8915 38.9145 48.8915 36.1943C48.8915 33.474 47.0526 31.2112 44.736 31.2112ZM44.736 38.8854C44.2535 38.8854 43.7908 38.5973 43.4423 38.1056C43.0946 37.6151 42.8724 36.9356 42.8724 36.1941C42.8724 35.4528 43.0947 34.7733 43.4423 34.2828C43.7908 33.7911 44.2536 33.503 44.736 33.503C45.2184 33.503 45.6812 33.7911 46.0297 34.2828C46.3773 34.7733 46.5995 35.4528 46.5995 36.1941C46.5995 36.9357 46.3773 37.6151 46.0297 38.1056C45.6812 38.5974 45.2184 38.8854 44.736 38.8854Z" fill="#F47920" stroke="#F47920" stroke-width="0.3"/>
<path d="M26.4881 50.6164L26.4881 50.6164C26.2262 51.1927 26.4811 51.8719 27.0573 52.134L27.0574 52.134C27.6334 52.3956 28.3128 52.1412 28.5749 51.5648L28.5749 51.5647C30.8146 46.6303 37.8078 46.7087 40.0038 51.5628C40.1954 51.9864 40.6123 52.2367 41.0485 52.2367C41.8707 52.2367 42.438 51.383 42.0919 50.6182C39.0751 43.9499 29.5407 43.9009 26.4881 50.6164Z" fill="#F47920" stroke="#F47920" stroke-width="0.3"/>
<path d="M50.0904 29.757H50.0904C49.8059 29.757 49.5205 29.6515 49.2985 29.4391C47.6824 27.8935 45.5979 26.9876 43.3707 27.0306C42.7329 27.0429 42.2147 26.5406 42.2018 25.9083L50.0904 29.757ZM50.0904 29.757C51.1122 29.7568 51.6345 28.5018 50.8827 27.7828L50.779 27.8912M50.0904 29.757L50.779 27.8912M50.779 27.8912L50.8827 27.7828C48.7735 25.7656 46.0944 24.6822 43.3241 24.7392M50.779 27.8912L43.3241 24.7392M43.3241 24.7392C42.6914 24.7521 42.1888 25.2756 42.2018 25.9083L43.3241 24.7392Z" fill="#F47920" stroke="#F47920" stroke-width="0.3"/>
<path d="M25.2081 27.0306L25.2079 27.0306C25.1554 27.0295 25.1026 27.029 25.0499 27.029C22.9553 27.029 20.9116 27.8789 19.2802 29.4391C19.0582 29.6515 18.7728 29.757 18.4883 29.757C18.1868 29.757 17.8852 29.6386 17.6601 29.4031L25.2081 27.0306ZM25.2081 27.0306L25.2092 27.0306C25.2157 27.0307 25.2235 27.0309 25.2316 27.0309C25.8536 27.0309 26.3642 26.5331 26.3769 25.9084M25.2081 27.0306L17.6961 27.7828C19.805 25.7659 22.4845 24.6802 25.2549 24.7393C25.8876 24.7522 26.39 25.2756 26.3769 25.9084M26.3769 25.9084L26.2269 25.9052M26.3769 25.9084C26.3769 25.9083 26.3769 25.9083 26.3769 25.9083L26.2269 25.9052M26.2269 25.9052C26.2383 25.3553 25.8016 24.9004 25.2517 24.8892L25.2316 26.8809C25.7722 26.8809 26.2159 26.4482 26.2269 25.9052Z" fill="#F47920" stroke="#F47920" stroke-width="0.3"/>
<path d="M21.614 50.4566L21.614 50.4566C21.331 49.8904 21.5604 49.2022 22.1265 48.9192L21.614 50.4566ZM21.614 50.4566L22.0252 51.2792C23.0761 53.85 21.1663 56.6794 18.3598 56.6378C15.6534 56.5922 13.8926 53.8046 14.9961 51.347L18.6669 44.5609M21.614 50.4566L18.6669 44.5609M18.6669 44.5609L19.5251 46.2781L19.5252 46.2781C19.8083 46.844 20.496 47.0735 21.0626 46.7908L21.0628 46.7908C21.6289 46.5076 21.8583 45.8195 21.5755 45.2532L21.5754 45.2532L20.5131 43.128C20.1694 42.4403 19.4777 42.0049 18.7091 41.9923M18.6669 44.5609L18.7098 41.9923C18.7096 41.9923 18.7093 41.9923 18.7091 41.9923M18.7091 41.9923C18.697 41.992 18.6854 41.992 18.6757 41.992H18.6748L18.6747 41.992C17.9189 41.9925 17.2286 42.4029 16.8681 43.0694L16.8681 43.0694C12.9645 50.2871 12.9453 50.3178 12.9313 50.3508C12.9305 50.3527 12.9297 50.3547 12.9281 50.3581L12.9279 50.3584C11.0896 54.3598 14.0124 58.9305 18.4272 58.9305C23.1596 58.9302 25.8932 53.8444 24.0933 50.2903C24.0932 50.2902 24.0931 50.29 24.0931 50.2899L23.664 49.4317C23.3811 48.8656 22.6928 48.6359 22.1266 48.9192L18.7091 41.9923Z" fill="#F47920" stroke="#F47920" stroke-width="0.3"/>
<path d="M14.9253 6.8022L14.9252 6.80221C14.4035 7.16071 14.2714 7.87404 14.6295 8.3957L14.6296 8.39573C14.9879 8.91748 15.7014 9.04961 16.2231 8.69145L16.2231 8.69142C31.6045 -1.87709 52.5922 2.92584 61.8695 18.9945C69.5378 32.2764 66.5633 48.9121 55.3978 58.7711C54.9233 59.19 54.8784 59.9142 55.2972 60.3887L55.4097 60.2894L55.2972 60.3887C55.7148 60.8616 56.4387 60.9095 56.9148 60.4892L56.8155 60.3768L56.9148 60.4892C68.8797 49.9245 72.0795 32.0947 63.8543 17.8484C53.8975 0.602716 31.3922 -4.51235 14.9253 6.8022Z" fill="#F47920" stroke="#F47920" stroke-width="0.3"/>
<path d="M51.8287 61.4978L51.8288 61.4977C52.3574 61.15 53.0679 61.296 53.4161 61.8248L53.2909 61.9073L53.4161 61.8248C53.7641 62.3532 53.6177 63.0641 53.0891 63.4121C44.8771 68.8191 34.9518 70.4367 25.4558 67.8919C-0.576552 60.9171 -8.52544 27.8984 11.1632 9.80087L11.1632 9.80086C11.6292 9.37256 12.3541 9.40293 12.7824 9.86902L51.8287 61.4978ZM51.8287 61.4978C51.2817 61.8582 50.7384 62.1941 50.2143 62.4968C42.8343 66.7576 34.2529 67.8762 26.0489 65.6782C1.7618 59.1704 -5.64767 28.3664 12.7143 11.4883M51.8287 61.4978L12.7143 11.4883M12.7143 11.4883C13.1803 11.0599 13.2109 10.3351 12.7824 9.86904L12.7143 11.4883Z" fill="#F47920" stroke="#F47920" stroke-width="0.3"/>
</svg>
